<?xml version="1.0" encoding="utf-8"?>
<!-- Generator: Adobe Illustrator 21.0.0, SVG Export Plug-In . SVG Version: 6.00 Build 0)  -->
<svg version="1.1" id="Layer_1" xmlns="http://www.w3.org/2000/svg" xmlns:xlink="http://www.w3.org/1999/xlink" x="0px" y="0px"
	 viewBox="0 0 660 200" style="enable-background:new 0 0 660 200;" xml:space="preserve">
<style type="text/css">
	.st0{fill:#FFFFFF;stroke:#84C441;stroke-miterlimit:10;}
	.st1{fill:#84C441;}
	.st2{fill:#808080;}
	.st3{fill:#525E64;}
</style>
<path class="st0" d="M277.7,117.2c1.5-4.2,0.4-86.2,0.3-96.9c-0.8-0.3-1.9-0.9-2.8-2c-1.4-1.7-0.9-3.2-1.8-4.7
	c-1.4-2.4-4.8-2.8-7.3-3.1c-3.2-0.4-5.7,0.5-10.7,2.3c-1.3,0.5-2.6,1-3.1,2.2c-0.4,0.8-0.1,1.5-0.6,2.5c-0.4,0.9-1.1,1.4-1.6,1.8
	c-2.1,1.5-4.2,2.3-5.4,3c-1.3,0.7-4.9,2.6-6,5.9c-0.9,2.5,0.4,3.9-0.9,5.4c-1.1,1.3-2.4,0.9-3.5,2.5c-0.2,0.3-0.8,1.3-0.8,2.6
	c0,1.6,0.8,2,0.7,3.2c0,0.4-0.2,0.8-1.5,2.6c-2,2.8-2.2,2.6-2.6,3.5c-0.8,2.1-0.2,4.3-0.1,4.4c0.5,1.6,1.3,1.7,1.5,3.2
	c0.2,1.2-0.3,1.4-0.4,2.9c-0.1,2.6,1.4,3,1.3,5.4c-0.1,1.3-0.6,1.3-1.1,3.5c-0.1,0.7-0.5,2.3-0.4,4.1c0.2,3.3,1.8,3.6,1.8,6.4
	c0,1.9-0.8,2.1-0.6,4.1c0.2,1.7,0.9,3,1.2,3.5c0.2,0.4,1,1.7,2.5,2.9c1.3,1.1,1.9,1,2.5,1.9c0.4,0.7,0.3,0.9,0.6,2.8
	c0.3,1.8,0.5,2.8,1.1,4c0.2,0.5,0.3,0.4,2,2.8c1.1,1.5,1.6,2.2,1.8,2.5c0.7,1.7-0.1,2.5,0.2,4.7c0,0.3,0.4,2.3,1.8,4
	c1.3,1.6,3,2.2,5.5,3.1c2.3,0.8,2.4,0.5,4.5,1.3c1.3,0.5,2.4,1.1,4.4,2.3c3.1,1.8,2.7,1.8,3.8,2.3c3.5,1.6,6.8,1.4,8.2,1.2
	c2.7-0.3,3.7-1,4-1.3C276,119.8,277.1,118.9,277.7,117.2z"/>
<g>
	<path class="st1" d="M267.3,115.4c-0.3-0.1-0.7-0.4-1.2-0.7c-0.6-0.4-1-0.9-1.2-1.3c-2-1.4-4-2.8-5.9-4.2
		c-0.1-4.4-0.2-8.7-0.3-13.1l-7.3-5.5l0.6-8.5l16.8-12.2c0-3.9,0-7.9,0-11.8c-0.1-0.3-0.4-0.8-0.4-1.5c0-0.7,0.1-1.3,0.2-1.6
		c0,0,0.3-0.3,0.6-0.3c0.3,0,0.6,0.2,0.6,0.3c0.1,0.3,0.2,0.7,0.2,1.1c0,0.8-0.1,1.4-0.3,1.8c0,4.1-0.1,8.2-0.1,12.3
		c-5.6,4.1-11.3,8.1-16.9,12.2l-0.5,7.6l7.3,5.4l0.3,13c1.9,1.3,3.8,2.7,5.7,4c0.4,0.1,1,0.3,1.6,0.7c0.3,0.2,0.6,0.5,0.8,0.7
		c0.2,0.3,0.2,0.6,0,0.9C267.9,115.3,267.6,115.4,267.3,115.4z"/>
</g>
<g>
	<path class="st1" d="M246.2,73l-2.4-2l0.6-14.1l7-3.7l0-6.8l-5-0.1l-5.1-4.1l0.3-11.4c1.9-1,3.7-2,5.6-3c0.3-0.4,1-1.5,2.3-1.7
		c0.2,0,1.1-0.1,1.3,0.3c0.2,0.4-0.3,0.9-0.4,1.1c-0.8,1-2.2,1-2.7,1c-1.7,0.9-3.5,1.9-5.2,2.8c-0.1,3.5-0.2,7-0.3,10.5l4.5,3.6
		l5.5,0.1l-0.1,8.2l-7,3.7l-0.6,13.2l1.9,1.5l4.2,0l4.7-3.3l0.5,0.7l-5,3.5L246.2,73z"/>
</g>
<g>
	<path class="st1" d="M251.4,69.5l-2.5-2.8c0.1-1.7,0.2-3.5,0.2-5.2c-0.1-0.3-0.2-0.8-0.2-1.4c0-0.6,0-1.1,0.1-1.5
		c0.1-0.3,0.4-0.5,0.7-0.4c0.3,0.1,0.5,0.4,0.5,0.5c0,0.4,0,0.8-0.1,1.4c-0.1,0.7-0.2,1.2-0.3,1.6c-0.1,1.6-0.1,3.1-0.2,4.7
		c0.7,0.8,1.4,1.5,2.1,2.3c3,0.1,6,0.2,9,0.3c0.1,0,1.8-0.8,2.4,0c0.1,0.1,0.2,0.3,0.2,0.6v0c0,0.3-0.1,0.5-0.2,0.6
		c-0.4,0.6-1.4,0.5-2.6-0.3C257.5,69.7,254.5,69.6,251.4,69.5z"/>
</g>
<g>
	<path class="st1" d="M273.4,36.2c-1.2-0.2-1.9-1.4-2.2-1.9c-3.3-2.3-6.6-4.6-9.9-6.9c0.1-1.5,0.2-3.1,0.3-4.6
		c1.8-1.1,3.6-2.1,5.4-3.2c0.1-0.3,0.8-1.5,1.9-1.7c0.1,0,1-0.2,1.2,0.3c0.2,0.3-0.1,0.8-0.2,1c-0.6,1-2,1.1-2.4,1.1
		c-1.7,1-3.4,2-5.1,3c-0.1,1.2-0.2,2.5-0.2,3.7c3.1,2.2,6.3,4.5,9.4,6.7c0.4,0,2.3,0.2,2.8,1.4c0.1,0.1,0.3,0.6,0.1,0.9
		C274.3,36.3,273.6,36.2,273.4,36.2z"/>
</g>
<g>
	<path class="st1" d="M275.4,111c-1.2-0.1-2.2-1.6-2.4-2c-3.2-2.5-6.3-4.9-9.5-7.4c0-2.5,0.1-5.1,0.1-7.6l-7.4-5.5l0-3.8l16.6-10.4
		l0.2-33l-9.3,0.2l-8.4-5.9c0.1-2.1,0.1-4.3,0.2-6.4c-0.1-0.2-0.2-0.5-0.3-0.9c-0.2-0.7-0.3-1.4,0-2c0,0,0.4-0.7,0.8-0.7
		c0.4,0,0.6,0.5,0.6,0.7c0.2,0.6,0.1,1.2-0.1,2c-0.1,0.4-0.2,0.7-0.2,0.9c-0.1,2-0.1,4-0.2,6c2.6,1.8,5.2,3.7,7.8,5.5l9.9-0.2
		l-0.3,34.4l-16.6,10.4l0,2.8l7.4,5.5l-0.1,7.6c3,2.4,6.1,4.7,9.1,7.1c0.3,0.1,2.6,0.5,2.9,1.6c0,0.1,0.1,0.5-0.1,0.8
		C276,111.1,275.5,111.1,275.4,111z"/>
</g>
<g>
	<path class="st1" d="M329.3,52.5c0-0.1,0.7-2.3-0.1-4.4c-0.3-0.9-0.5-0.7-2.5-3.5c-1.3-1.8-1.5-2.2-1.5-2.6
		c-0.1-1.3,0.7-1.7,0.7-3.2c0-1.3-0.6-2.3-0.8-2.6c-1.1-1.6-2.4-1.3-3.4-2.5c-1.3-1.5-0.1-2.9-0.9-5.4c-1.1-3.3-4.6-5.2-5.9-5.9
		c-1.2-0.7-3.2-1.5-5.3-3c-0.5-0.4-1.2-0.9-1.6-1.8c-0.5-1-0.2-1.7-0.6-2.5c-0.5-1.2-1.7-1.7-3-2.2c-4.9-1.8-7.4-2.7-10.5-2.3
		c-2.5,0.3-5.8,0.7-7.1,3.1c-0.8,1.5-0.4,3-1.7,4.7c-0.9,1.1-2,1.7-2.7,2c-0.1,10.7-1.2,92.8,0.3,96.9c0.6,1.6,1.7,2.6,1.7,2.6
		c0.3,0.3,1.3,1,3.9,1.3c1.4,0.2,4.6,0.4,8-1.2c1.1-0.5,0.6-0.5,3.7-2.3c1.9-1.2,2.9-1.7,4.3-2.3c2-0.8,2.1-0.5,4.4-1.3
		c2.4-0.9,4.1-1.5,5.4-3.1c1.4-1.7,1.7-3.7,1.7-4c0.3-2.2-0.5-3,0.2-4.7c0.1-0.3,0.7-1,1.7-2.5c1.7-2.3,1.7-2.3,2-2.8
		c0.5-1.1,0.7-2.1,1-4c0.3-1.8,0.2-2.1,0.6-2.8c0.6-0.9,1.1-0.8,2.4-1.9c1.5-1.2,2.2-2.5,2.4-2.9c0.3-0.5,1-1.8,1.1-3.5
		c0.2-2-0.5-2.2-0.6-4.1c-0.1-2.8,1.5-3,1.7-6.4c0.1-1.8-0.2-3.4-0.3-4.1c-0.5-2.2-1-2.1-1-3.5c-0.1-2.4,1.3-2.8,1.3-5.4
		c0-1.5-0.5-1.6-0.3-2.9C328,54.2,328.8,54,329.3,52.5z M298.3,26.3c0.4-1.3,1.5-2.3,3.4-2.8c3.6-1,6.6,1.9,6.7,2
		c1.9,1.8,2.3,4.2,2.4,5.2c0.2,1.4,0.2,2.8-0.1,4.1l0,0.1c-0.3,0.6-0.5,1.6-0.3,2.7c0.2,0.9,0.6,1.8,1,1.8c0.2,0,0.4-0.3,0.6-0.5
		c0.4-0.5,0.8-1,1.6-1.1c0.7,0,1.5,0.4,2.2,1.4c0.9,1.3,0.9,3,0.1,4.3c-0.4,0.6-1.1,1.3-2.4,1.6c-1.6,0.4-2.9-0.4-3.4-0.7
		c-1.3-0.8-1.9-2.1-2.2-2.7c-0.1-0.2-0.2-0.5-0.3-0.7c-0.6,1.5-0.7,2.6-0.3,3.5c0.1,0.2,0.2,0.4,0.3,0.5c0.2,0.3,0.5,0.7,0.7,1.4
		c0.4,1,0.8,2.3,0.2,3.2c-0.4,0.6-1.1,0.8-1.9,0.8c-0.4,0-0.9-0.1-1.2-0.2c-1.4-0.5-1.9-1.9-2-2.4c-0.4-1.2-0.2-3.1,0.6-5.8
		c0.4-1.2,0.7-2,1-2.6c0.3-0.8,0.6-1.4,0.8-2.5c0.2-1.4,0.4-2.6-0.2-3.7c-0.5-1-1.6-1.9-3-2.4c-0.6-0.2-1.1-0.3-1.5-0.3
		c-0.5,0-1-0.1-1.6-0.5C298.4,29.3,297.9,27.7,298.3,26.3z M298.5,35.1c1.4-0.5,2.9,0.2,3.4,1.6c0.5,1.4-0.2,3-1.6,3.5
		c-1.4,0.5-2.9-0.2-3.4-1.6S297.1,35.6,298.5,35.1z M303,100.5c-0.2,2.3-1.3,3.8-1.8,4.6c-1.1,1.6-2.6,2.9-4.5,3.7l-2.2,1l1.7-1.7
		c0.6-0.6,1.3-1.6,1.6-3c0.1-0.5,0.3-1.4,0-2.5c-0.1-0.5-0.3-0.7-0.7-1.3c-0.3-0.4-0.6-0.9-1.2-1.7c-0.7-1.2-1.1-1.8-1.2-2.6
		c-0.1-1.1,0.4-2.7,1.7-3.4c1.5-0.8,2.9,0,3.1,0.1c0.8,0.4,1.8,1.1,2.6,2.4C303.2,98,303.1,99.7,303,100.5z M303.9,86
		c-1,0-1.8-0.8-1.8-1.8s0.8-1.8,1.8-1.8s1.8,0.8,1.8,1.8S304.9,86,303.9,86z M304.7,66.4c-1.1,0.7-2.3,1.3-3.6,1.9
		c0.7,0.9,1.5,2.3,1.8,4.1c0.3,1.9,0,3.4-0.2,4.2c-0.4,1.6-0.7,2.8-1.8,3.5c-0.5,0.3-1.2,0.5-1.9,0.5c-0.8,0-1.7-0.3-2.2-0.9
		c-1-1.2-0.4-3.1-0.2-3.7c0.2-0.6,0.4-0.9,0.6-1.2c0.2-0.3,0.3-0.5,0.5-1.1c0.1-0.4,0.4-1.4,0.1-2.4c-0.2-0.7-0.6-1.1-1.2-1.6
		c-0.2-0.2-0.4-0.4-0.6-0.6c-0.9-1-1.7-2.2-2.2-3.6c-0.2,0.4-0.4,0.9-0.4,1.3c-0.1,1.4,0.7,2.5,1.2,3.2c0.4,0.6,0.8,0.9,1.1,1.2
		c0.4,0.4,0.8,0.7,0.9,1.4c0.3,1.4-0.6,2.5-0.8,2.8c-0.2,0.3-1.2,1.3-2.5,1.3c-2.3,0.1-3.6-2.5-3.9-3c-0.8-1.8-0.6-3.5-0.4-4.8
		c0.1-0.3,0.2-0.9,1.3-4c0.4-0.9,0.7-1.8,1-2.5c-0.4,0.1-0.7,0.3-0.9,0.6c-0.2,0.3-0.3,0.6-0.3,0.9c-0.1,0.4-0.1,0.9-0.5,1.5
		c-0.6,0.9-1.3,1.3-2.1,1.3c-0.9-0.1-1.6-0.8-1.8-1.6c-0.5-1.6,1.1-3.4,1.8-4.1c1.2-1.3,2.2-1.7,3.1-2.1c0.8-0.3,1.4-0.6,2.2-1.4
		c1.6-1.8,1.8-4.1,1.9-5.4c0.2-2.8-0.7-5.1-1.4-6.5l-0.8-1.5l1.4,1c1,0.7,1.8,1.5,2.3,2.5c0.1,0.3,0.4,0.7,0.6,1.3
		c0.6,1.7,0.7,3.8,0.3,6.2c-0.2,1.3-0.4,2.1-0.6,2.8c-0.2,0.8-0.5,1.6-0.6,3.2c-0.2,2.3,0,2.9,0.3,3.3c0.9,1.5,3,1.5,3.1,1.5
		c1.2,0,2.7-0.5,3.3-1.6c0.3-0.5,0.2-1,0.1-1.5c-0.1-0.6-0.2-1.3,0.3-2.1c0.6-1,1.8-1.9,3.1-1.6c1.6,0.3,2.1,2.2,2.1,2.2
		c0.4,1.5-0.4,2.7-0.7,3.1C306.9,65,306.2,65.5,304.7,66.4z M323.2,76.9c-0.1,0.2-1.1,1.7-2.4,1.7c-0.1,0-0.2,0-0.3,0
		c-0.9-0.2-1.3-1.1-1.8-2.1c-0.3-0.7-0.5-1.3-0.6-1.7c-0.1-0.5-0.2-0.7-0.4-0.9c-0.6-0.5-1.4-0.5-2-0.5c-0.7,0-1.2,0.2-1.7,0.5
		c-0.2,0.1-0.5,0.2-0.8,0.3c-1.3,0.4-2.7,0.5-4.3,0.2l-1.3-0.2l1.2-0.6c1.7-0.8,3.2-1.8,4.5-3c1.2-1.1,1.9-1.8,2.3-3
		c0.2-0.6,0.2-1,0.2-1.5c0-0.4,0-0.9,0.1-1.6c0.2-1.4,0.6-3.2,2-4.1c1-0.6,2.4-0.7,3.6-0.2c0.3,0.2,1.5,0.8,2,2.1
		c0.6,1.5,0.1,2.8-0.3,3.7c-0.8,2.2-2.4,3.7-3.8,4.7c0.2,0,0.3,0.1,0.5,0.1c1,0.2,1.8,0.4,2.6,1.1c0.6,0.6,1.1,1.2,1.3,2
		C324.1,75.2,323.5,76.4,323.2,76.9z"/>
</g>
<path class="st2" d="M645.7,79C645.7,79,645.7,79,645.7,79C645.7,79,645.7,79,645.7,79z"/>
<path class="st2" d="M664.7,128.5"/>
<path class="st1" d="M70.6,178.1c-1.2,0-2.2,0-3,0c-0.8,0-1.8,0-3,0v-42.1h5.8l26.1,32.7h0.5v-32.7h5.9v42.1h-5.8l-26.1-32.6h-0.5
	V178.1z"/>
<path class="st1" d="M121.4,178.1c-1.2,0-2.2,0-3,0s-1.8,0-3,0v-42.1h6V178.1z"/>
<path class="st1" d="M137.5,173.2c-3.8-3.9-5.7-9.3-5.7-16.1c0-6.8,1.9-12.2,5.7-16.1c3.8-3.9,9-5.9,15.5-5.9c5.1,0,9.4,1.3,13,3.8
	s5.8,5.8,6.5,9.9h-6.1c-0.8-2.7-2.4-4.9-4.8-6.5c-2.4-1.6-5.3-2.4-8.6-2.4c-4.6,0-8.3,1.5-11,4.6s-4.1,7.3-4.1,12.6
	c0,5.3,1.4,9.4,4.1,12.5c2.7,3.1,6.4,4.6,11,4.6c3.4,0,6.2-0.7,8.6-2.1s4-3.3,4.7-5.8h6.1c-0.8,3.9-3,7-6.5,9.3
	c-3.5,2.3-7.9,3.5-13,3.5C146.5,179.1,141.4,177.2,137.5,173.2z"/>
<path class="st1" d="M213.9,178.1c-1-2.4-1.8-4.4-2.4-6s-1.4-3.6-2.4-6h-19.2l-4.8,12h-6.3l17.8-42.1h5.9l17.8,42.1H213.9z
	 M199.2,142.9c-1,2.5-1.9,4.7-2.7,6.6s-1.5,3.7-2.2,5.6c-0.7,1.9-1.6,4.1-2.7,6.6h15.6l-7.5-18.8H199.2z"/>
<path class="st1" d="M234.7,161.5c0,3.3,0,6.1,0,8.3c0,2.2,0,5,0,8.3h-6v-42.1h18.4c4.7,0,8.4,1.1,11.2,3.4c2.8,2.3,4.2,5.3,4.2,9.1
	c0,2.9-0.9,5.5-2.6,7.6c-1.7,2.1-4.1,3.6-7.1,4.5l11.1,17.5h-7l-10.3-16.6H234.7z M234.7,140.7c0,2.2,0,4.1,0,5.7s0,3.2,0,4.8
	s0,3.5,0,5.7h11.9c3.1,0,5.5-0.7,7.2-2.1c1.7-1.4,2.5-3.4,2.5-6c0-2.5-0.9-4.5-2.6-5.9s-4.2-2.1-7.3-2.1H234.7z"/>
<path class="st1" d="M304.7,178.1c-1-2.4-1.8-4.4-2.4-6s-1.4-3.6-2.4-6h-19.2l-4.8,12h-6.3l17.8-42.1h5.9l17.8,42.1H304.7z
	 M290,142.9c-1,2.5-1.9,4.7-2.7,6.6c-0.7,1.9-1.5,3.7-2.2,5.6c-0.7,1.9-1.6,4.1-2.7,6.6h15.6l-7.5-18.8H290z"/>
<path class="st1" d="M354.2,174.4c-3.7,3.2-8.7,4.7-14.9,4.7c-6.7,0-12-2-15.9-6c-4-4-5.9-9.3-5.9-16.1c0-6.6,2-12,6-16
	c4-4,9.3-6,15.9-6c5.3,0,9.8,1.2,13.4,3.6c3.6,2.4,5.9,5.7,6.7,9.9h-6.1c-1-2.8-2.7-5-5.1-6.5c-2.4-1.5-5.4-2.2-8.9-2.2
	c-4.8,0-8.6,1.6-11.4,4.7c-2.8,3.1-4.3,7.3-4.3,12.5c0,5.3,1.4,9.5,4.2,12.6c2.8,3.1,6.6,4.6,11.5,4.6c4.3,0,7.8-1.1,10.5-3.3
	c2.7-2.2,4-5.1,4-8.6v-1h-13.6v-4.6h19.5v5.1C359.8,167.1,358,171.2,354.2,174.4z"/>
<path class="st1" d="M376.6,136.1c0,3.7,0,6.9,0,9.6s0,5.4,0,8.1s0,5.9,0,9.6c0,3.2,1.1,5.8,3.4,7.9c2.3,2.1,5.5,3.1,9.7,3.1
	c4.2,0,7.4-1,9.7-3.1c2.3-2.1,3.4-4.7,3.4-7.9v-27.3h6v27.6c0,4.5-1.7,8.2-5.1,11.1s-8.1,4.4-14.1,4.4c-6,0-10.6-1.5-14-4.4
	c-3.4-2.9-5.1-6.6-5.1-11.1v-27.6H376.6z"/>
<path class="st1" d="M452.6,178.1c-1-2.4-1.8-4.4-2.4-6s-1.4-3.6-2.4-6h-19.2l-4.8,12h-6.3l17.8-42.1h5.9l17.8,42.1H452.6z
	 M438,142.9c-1,2.5-1.9,4.7-2.7,6.6c-0.7,1.9-1.5,3.7-2.2,5.6c-0.7,1.9-1.6,4.1-2.7,6.6H446l-7.5-18.8H438z"/>
<path d="M43,119.2c-2.1,0-3.9,0-5.3,0s-3.2,0-5.3,0V14.7H43V119.2z"/>
<path d="M75.2,119.2c-2.1,0-3.9,0-5.2,0c-1.4,0-3.1,0-5.2,0V14.7h10.3L121.2,96h0.9V14.7h10.5v104.5h-10.3L76.2,38.1h-0.9V119.2z"/>
<path d="M164.9,119.2c-2.1,0-3.9,0-5.2,0c-1.4,0-3.1,0-5.2,0V14.7h10.3L210.9,96h0.9V14.7h10.5v104.5H212l-46.2-81.1h-0.9V119.2z"/>
<path d="M372.2,119.2c-2.1,0-3.9,0-5.2,0s-3.1,0-5.2,0L330.3,14.7h11.1l25,87.7h0.9l25-87.7h11.1L372.2,119.2z"/>
<path d="M473.8,119.2c-1.7-6-3.2-11-4.3-15c-1.1-3.9-2.5-8.9-4.3-15h-33.8l-8.5,29.9h-11.1l31.4-104.5h10.5l31.4,104.5H473.8z
	 M447.8,31.5c-1.8,6.3-3.4,11.7-4.7,16.4s-2.6,9.3-4,13.9c-1.3,4.6-2.9,10.1-4.7,16.4h27.6l-13.3-46.7H447.8z"/>
<path d="M532.6,119.2c-2.1,0-3.9,0-5.3,0c-1.4,0-3.2,0-5.3,0V26.4h-27.4V14.7H560v11.7h-27.4V119.2z"/>
<path d="M629.1,107.5c0,2.4,0,4.3,0,5.9c0,1.5,0,3.5,0,5.9h-52.7V14.7h52.7v11.7H587v33.5h39.9v11.6H587v35.9H629.1z"/>
<path class="st3" d="M475.5,138.7c2.6-2.4,5.9-3.6,9.9-3.6c3.9,0,7.1,1.1,9.7,3.4c2.6,2.3,3.9,5.1,3.9,8.4c0,2.2-0.6,4.3-1.9,6.4
	c-1.3,2.1-3.7,5-7.2,8.7L479.6,173v0.5h20.2v4.7h-27.9v-3.6l14.9-15.9c2.8-3,4.6-5.2,5.5-6.7s1.4-3.1,1.4-4.8c0-2.1-0.8-3.9-2.4-5.3
	c-1.6-1.4-3.6-2.1-6-2.1c-2.5,0-4.6,0.8-6.1,2.3c-1.6,1.5-2.3,3.5-2.3,6v0h-5.2v0C471.6,144.2,472.9,141.1,475.5,138.7z"/>
<path class="st3" d="M512.1,173.4c-2.7-3.8-4-9.3-4-16.3c0-6.9,1.3-12.3,4-16.2c2.7-3.9,6.4-5.8,11.3-5.8c4.8,0,8.5,1.9,11.2,5.8
	c2.7,3.9,4,9.3,4,16.3c0,7-1.3,12.4-4,16.2c-2.7,3.8-6.4,5.7-11.3,5.7C518.5,179.1,514.7,177.2,512.1,173.4z M530.7,170.1
	c1.7-3,2.5-7.3,2.5-13c0-5.6-0.8-9.9-2.6-12.9c-1.7-3-4.1-4.5-7.3-4.5c-3.2,0-5.6,1.5-7.3,4.5c-1.7,3-2.6,7.3-2.6,12.9
	c0,5.6,0.9,9.9,2.6,12.9c1.7,3,4.1,4.5,7.3,4.5C526.6,174.6,529,173.1,530.7,170.1z"/>
<path class="st3" d="M557.8,178.1c0-3.5,0-6.6,0-9.4c0-2.7,0-5.7,0-8.7c0-3.1,0-6,0-8.7s0-5.9,0-9.4c0-1.9,0-3.9,0-5.8h5.3v42.1
	H557.8z"/>
<path class="st3" d="M579.5,175.7c-2.9-2.3-4.3-5.2-4.3-8.8c0-2.7,0.8-5.1,2.5-7.1s3.8-3.2,6.5-3.7v-0.5c-2.2-0.6-3.9-1.7-5.2-3.4
	s-2-3.7-2-6c0-3.3,1.3-6,3.9-8.1s5.9-3.1,9.9-3.1c4,0,7.4,1,9.9,3.1c2.6,2.1,3.9,4.8,3.9,8.1c0,2.3-0.6,4.3-1.9,6
	c-1.3,1.7-3,2.8-5.3,3.4v0.5c2.7,0.5,4.9,1.7,6.5,3.7c1.6,2,2.5,4.3,2.5,7.1c0,3.6-1.4,6.5-4.3,8.8c-2.9,2.3-6.6,3.4-11.2,3.4
	C586.2,179.1,582.4,178,579.5,175.7z M598,172.4c1.9-1.5,2.8-3.5,2.8-5.9c0-2.4-0.9-4.4-2.8-5.9c-1.9-1.5-4.3-2.3-7.3-2.3
	c-3,0-5.4,0.8-7.3,2.3c-1.9,1.5-2.8,3.5-2.8,5.9c0,2.4,0.9,4.4,2.8,5.9c1.9,1.5,4.3,2.3,7.3,2.3C593.7,174.6,596.1,173.9,598,172.4z
	 M596.9,152c1.6-1.3,2.3-3,2.3-5.2c0-2.2-0.8-3.9-2.3-5.2c-1.6-1.3-3.6-2-6.2-2s-4.6,0.7-6.2,2c-1.6,1.3-2.3,3.1-2.3,5.2
	c0,2.1,0.8,3.9,2.3,5.2c1.6,1.3,3.6,2,6.1,2C593.3,154,595.3,153.3,596.9,152z"/>
</svg>
