<?xml version="1.0" encoding="utf-8"?>
<!-- Generator: Adobe Illustrator 21.0.0, SVG Export Plug-In . SVG Version: 6.00 Build 0)  -->
<svg version="1.1" xmlns="http://www.w3.org/2000/svg" xmlns:xlink="http://www.w3.org/1999/xlink" x="0px" y="0px"
	 viewBox="0 0 660 200" style="enable-background:new 0 0 660 200;" xml:space="preserve">
<style type="text/css">
	.st0{fill:#808080;}
	.st1{fill:#84C441;}
	.st2{fill:#83C341;}
	.st3{fill:#525E64;}
</style>
<g id="Layer_1">
	<path class="st0" d="M640.4,79.6L640.4,79.6L640.4,79.6z"/>
	<path class="st0" d="M649.4,129.1"/>
	<path class="st1" d="M275.4,50.5c-0.8,0-8.7-0.1-13.5,6.2c-4.4,5.6-3,12.1-2.7,13.5c0.2,1.1,1.7,7.4,7.9,11.1
		c1.2,0.7,5.5,3.2,11.2,2.3c6.1-1,9.4-5.3,10.4-6.6c3.1-4.1,3.4-8.5,3.5-10.1c-5.5,0.1-11.2,0.1-16.7,0.2
		C275.5,61.4,275.4,55.9,275.4,50.5z"/>
	<path class="st1" d="M280.4,46.6c1,0,7.2-0.3,12.2,4.5s4.8,11.1,4.8,12.1c-5.6,0-11.2,0-16.9-0.1C280.4,57.7,280.4,52.1,280.4,46.6
		z"/>
	<path d="M307.1,19.8c0-0.4,0-1.6-0.8-2.7c-1.1-1.4-2.9-2-4.4-2.2c-25.1-0.4-43.7-0.3-47.7,0c-1,0.1-2.8,0.3-4.1,1.5
		c-1.5,1.3-1.6,3.4-1.6,4.2c-0.1,3.9-0.3,41.3-0.3,92.3c0.4,1.9,1.1,3.3,1.6,3.9c0.6,1,1.3,1.3,1.3,1.5c1.2,0.9,2.5,1.1,3,1.2
		c4.5,0.8,23.4,0.8,23.4,0.8c3,0,20.4,0.1,24.8-0.8c0.6-0.1,1.9-0.4,3-1.2c1.7-1.2,2.2-3.1,2.4-3.7c0.4-1.6,0.3-3,0.3-3.3
		C307.6,106.2,307.1,21.7,307.1,19.8z M271.6,18.5h13c0.3,0,0.5,0.2,0.5,0.5s-0.3,0.5-0.5,0.5h-13c-0.3,0-0.5-0.2-0.5-0.5
		S271.4,18.5,271.6,18.5z M262.8,18.1c0.8,0,1.4,0.6,1.4,1.2c0,0.7-0.6,1.2-1.4,1.2s-1.4-0.6-1.4-1.2S262,18.1,262.8,18.1z
		 M262.6,115h-3.7c-0.3,0-0.4-0.2-0.4-0.4s0.2-0.4,0.4-0.4h3.7c0.3,0,0.4,0.2,0.4,0.4C263,114.9,262.8,115,262.6,115z M281.8,116.6
		h-7.6c-1.2,0-2.1-0.9-2.1-1.8c0-1.1,0.9-1.8,2.1-1.8h7.6c1.2,0,2.1,0.9,2.1,1.8C283.9,115.7,283,116.6,281.8,116.6z M296.1,115.1
		h-3.7c-0.3,0-0.4-0.2-0.4-0.4s0.2-0.4,0.4-0.4h3.7c0.3,0,0.4,0.2,0.4,0.4C296.4,115,296.2,115.1,296.1,115.1z M252,109.2
		c0.2-27.9,0.4-55.8,0.5-83.7c16.9-0.1,33.8-0.2,50.7-0.3c0.3,28.1,0.5,56.1,0.8,84.2C286.8,109.4,269.4,109.3,252,109.2z"/>
	<path d="M42.2,119.3c-2.1,0-3.9,0-5.3,0s-3.2,0-5.3,0V14.8h10.6V119.3z"/>
	<path d="M74.4,119.3c-2.1,0-3.9,0-5.2,0s-3.1,0-5.2,0V14.8h10.3l46.2,81.4h0.9V14.8h10.5v104.5h-10.3l-46.2-81h-0.9L74.4,119.3
		L74.4,119.3z"/>
	<path d="M164,119.3c-2.1,0-3.9,0-5.2,0s-3.1,0-5.2,0V14.8h10.3l46.2,81.4h0.9V14.8h10.5v104.5h-10.3L165,38.2h-0.9v81.1H164z"/>
	<path d="M371.4,119.3c-2.1,0-3.9,0-5.2,0s-3.1,0-5.2,0L329.5,14.8h11.1l25,87.7h0.9l25-87.7h11.1L371.4,119.3z"/>
	<path d="M472.9,119.3c-1.7-6-3.2-11-4.3-15c-1.1-3.9-2.5-8.9-4.3-15h-33.7l-8.5,29.9H411l31.4-104.5h10.5l31.4,104.5L472.9,119.3
		L472.9,119.3z M447,31.7c-1.8,6.3-3.4,11.7-4.7,16.4s-2.6,9.3-4,13.9c-1.3,4.6-2.9,10.1-4.7,16.4h27.6l-13.3-46.7H447z"/>
	<path d="M531.8,119.3c-2.1,0-3.9,0-5.3,0c-1.4,0-3.2,0-5.3,0V26.5h-27.4V14.8h65.5v11.7h-27.4L531.8,119.3L531.8,119.3z"/>
	<path d="M628.3,107.6c0,2.4,0,4.3,0,5.9c0,1.5,0,3.5,0,5.9h-52.7V14.8h52.7v11.7h-42.1V60h39.9v11.6h-39.9v35.9L628.3,107.6
		L628.3,107.6z"/>
	<path class="st2" d="M68.4,180c-1.2,0-2.2,0-3,0s-1.8,0-3,0V138h5.8l26.1,32.7h0.5V138h5.9V180H95l-26.1-32.6h-0.5V180z"/>
	<path class="st2" d="M119.2,180c-1.2,0-2.2,0-3,0s-1.8,0-3,0V138h6V180z"/>
	<path class="st2" d="M135.3,175.1c-3.8-3.9-5.7-9.3-5.7-16.1c0-6.8,1.9-12.2,5.7-16.1s9-5.9,15.5-5.9c5.1,0,9.4,1.3,13,3.8
		s5.8,5.8,6.5,9.9h-6.1c-0.8-2.7-2.4-4.9-4.8-6.5c-2.4-1.6-5.3-2.4-8.6-2.4c-4.6,0-8.3,1.5-11,4.6c-2.7,3.1-4.1,7.3-4.1,12.6
		c0,5.3,1.4,9.4,4.1,12.5c2.7,3.1,6.4,4.6,11,4.6c3.4,0,6.2-0.7,8.6-2.1s4-3.3,4.7-5.8h6.1c-0.8,3.9-3,7-6.5,9.3
		c-3.5,2.3-7.9,3.5-13,3.5C144.3,181,139.1,179,135.3,175.1z"/>
	<path class="st2" d="M211.7,180c-1-2.4-1.8-4.4-2.4-6c-0.6-1.6-1.4-3.6-2.4-6h-19.2l-4.8,12h-6.3l17.8-42.1h5.9L218,180H211.7z
		 M197,144.8c-1,2.5-1.9,4.7-2.7,6.6c-0.7,1.9-1.5,3.7-2.2,5.6c-0.7,1.9-1.6,4.1-2.7,6.6h15.6l-7.5-18.8H197z"/>
	<path class="st2" d="M232.5,163.4c0,3.3,0,6.1,0,8.3s0,5,0,8.3h-6V138h18.4c4.7,0,8.4,1.1,11.2,3.4c2.8,2.3,4.2,5.3,4.2,9.1
		c0,2.9-0.9,5.5-2.6,7.6c-1.7,2.1-4.1,3.6-7.1,4.5l11.1,17.5h-7l-10.3-16.6H232.5z M232.5,142.6c0,2.2,0,4.1,0,5.7
		c0,1.6,0,3.2,0,4.8s0,3.5,0,5.7h11.9c3.1,0,5.5-0.7,7.2-2.1c1.7-1.4,2.5-3.4,2.5-6c0-2.5-0.9-4.5-2.6-5.9c-1.8-1.4-4.2-2.1-7.3-2.1
		H232.5z"/>
	<path class="st2" d="M302.4,180c-1-2.4-1.8-4.4-2.4-6c-0.6-1.6-1.4-3.6-2.4-6h-19.2l-4.8,12h-6.3l17.8-42.1h5.9l17.8,42.1H302.4z
		 M287.8,144.8c-1,2.5-1.9,4.7-2.7,6.6c-0.7,1.9-1.5,3.7-2.2,5.6c-0.7,1.9-1.6,4.1-2.7,6.6h15.6l-7.5-18.8H287.8z"/>
	<path class="st2" d="M352,176.3c-3.7,3.2-8.7,4.7-14.9,4.7c-6.7,0-12-2-15.9-6c-4-4-5.9-9.3-5.9-16.1c0-6.6,2-12,6-16
		c4-4,9.3-6,15.9-6c5.3,0,9.8,1.2,13.4,3.6s5.9,5.7,6.7,9.9h-6.1c-1-2.8-2.7-5-5.1-6.5c-2.4-1.5-5.4-2.2-8.9-2.2
		c-4.8,0-8.6,1.6-11.4,4.7s-4.3,7.3-4.3,12.5c0,5.3,1.4,9.5,4.2,12.6c2.8,3.1,6.6,4.6,11.5,4.6c4.3,0,7.8-1.1,10.5-3.3
		c2.7-2.2,4-5.1,4-8.6v-1h-13.6v-4.6h19.5v5.1C357.6,168.9,355.8,173.1,352,176.3z"/>
	<path class="st2" d="M374.4,138c0,3.7,0,6.9,0,9.6s0,5.4,0,8.1s0,5.9,0,9.6c0,3.2,1.1,5.8,3.4,7.9c2.3,2.1,5.5,3.1,9.7,3.1
		c4.2,0,7.4-1,9.7-3.1c2.3-2.1,3.4-4.7,3.4-7.9V138h6v27.6c0,4.5-1.7,8.2-5.1,11.1c-3.4,2.9-8.1,4.4-14.1,4.4c-6,0-10.6-1.5-14-4.4
		c-3.4-2.9-5.1-6.6-5.1-11.1V138H374.4z"/>
	<path class="st2" d="M450.4,180c-1-2.4-1.8-4.4-2.4-6c-0.6-1.6-1.4-3.6-2.4-6h-19.2l-4.8,12h-6.3L433,138h5.9l17.8,42.1H450.4z
		 M435.7,144.8c-1,2.5-1.9,4.7-2.7,6.6c-0.7,1.9-1.5,3.7-2.2,5.6c-0.7,1.9-1.6,4.1-2.7,6.6h15.6l-7.5-18.8H435.7z"/>
	<path class="st3" d="M473.3,140.6c2.6-2.4,5.9-3.6,9.9-3.6c3.9,0,7.1,1.1,9.7,3.4c2.6,2.3,3.9,5.1,3.9,8.4c0,2.2-0.6,4.3-1.9,6.4
		c-1.3,2.1-3.7,5-7.2,8.7l-10.4,10.9v0.5h20.2v4.7h-27.9v-3.6l14.9-15.9c2.8-3,4.6-5.2,5.5-6.7s1.4-3.1,1.4-4.8
		c0-2.1-0.8-3.9-2.4-5.3c-1.6-1.4-3.6-2.1-6-2.1c-2.5,0-4.6,0.8-6.1,2.3c-1.6,1.5-2.3,3.5-2.3,6v0h-5.2v0
		C469.4,146.1,470.7,143,473.3,140.6z"/>
	<path class="st3" d="M509.9,175.2c-2.7-3.8-4-9.3-4-16.3c0-6.9,1.3-12.3,4-16.2c2.7-3.9,6.4-5.8,11.3-5.8c4.8,0,8.5,1.9,11.2,5.8
		c2.7,3.9,4,9.3,4,16.3c0,7-1.3,12.4-4,16.2c-2.7,3.8-6.4,5.7-11.3,5.7C516.3,181,512.5,179.1,509.9,175.2z M528.5,171.9
		c1.7-3,2.5-7.3,2.5-13c0-5.6-0.8-9.9-2.6-12.9c-1.7-3-4.1-4.5-7.3-4.5c-3.2,0-5.6,1.5-7.3,4.5c-1.7,3-2.6,7.3-2.6,12.9
		c0,5.6,0.9,9.9,2.6,12.9c1.7,3,4.1,4.5,7.3,4.5C524.3,176.4,526.8,174.9,528.5,171.9z"/>
	<path class="st3" d="M555.5,180c0-3.5,0-6.6,0-9.4c0-2.7,0-5.7,0-8.7c0-3.1,0-6,0-8.7c0-2.8,0-5.9,0-9.4c0-1.9,0-3.9,0-5.8h5.3V180
		H555.5z"/>
	<path class="st3" d="M577.3,177.6c-2.9-2.3-4.3-5.2-4.3-8.8c0-2.7,0.8-5.1,2.5-7.1c1.6-2,3.8-3.2,6.5-3.7v-0.5
		c-2.2-0.6-3.9-1.7-5.2-3.4c-1.3-1.7-2-3.7-2-6c0-3.3,1.3-6,3.9-8.1s5.9-3.1,9.9-3.1c4,0,7.4,1,9.9,3.1c2.6,2.1,3.9,4.8,3.9,8.1
		c0,2.3-0.6,4.3-1.9,6s-3,2.8-5.3,3.4v0.5c2.7,0.5,4.9,1.7,6.5,3.7c1.6,2,2.5,4.3,2.5,7.1c0,3.6-1.4,6.5-4.3,8.8
		c-2.9,2.3-6.6,3.4-11.2,3.4C583.9,181,580.2,179.9,577.3,177.6z M595.8,174.3c1.9-1.5,2.8-3.5,2.8-5.9c0-2.4-0.9-4.4-2.8-5.9
		c-1.9-1.5-4.3-2.3-7.3-2.3c-3,0-5.4,0.8-7.3,2.3c-1.9,1.5-2.8,3.5-2.8,5.9c0,2.4,0.9,4.4,2.8,5.9c1.9,1.5,4.3,2.3,7.3,2.3
		C591.5,176.5,593.9,175.8,595.8,174.3z M594.7,153.9c1.6-1.3,2.3-3,2.3-5.2c0-2.2-0.8-3.9-2.3-5.2s-3.6-2-6.2-2s-4.6,0.7-6.2,2
		c-1.6,1.3-2.3,3.1-2.3,5.2c0,2.1,0.8,3.9,2.3,5.2c1.6,1.3,3.6,2,6.1,2C591.1,155.8,593.1,155.2,594.7,153.9z"/>
</g>
<g id="Layer_2">
</g>
</svg>
