<?xml version="1.0" encoding="utf-8"?>
<!-- Generator: Adobe Illustrator 21.0.0, SVG Export Plug-In . SVG Version: 6.00 Build 0)  -->
<svg version="1.1" id="Layer_1" xmlns="http://www.w3.org/2000/svg" xmlns:xlink="http://www.w3.org/1999/xlink" x="0px" y="0px"
	 viewBox="0 0 300 300" style="enable-background:new 0 0 300 300;" xml:space="preserve">
<style type="text/css">
	.st0{fill:#9FD9D8;}
	.st1{fill:#B2B1D8;}
	.st2{fill:#525E64;}
	.st3{fill:#72C9BE;}
	.st4{fill:#D3DADD;}
	.st5{fill:#2984A0;}
</style>
<g>
	<g>
		<path class="st0" d="M126.9,170.4c0-0.1-0.1-0.1-0.1-0.2"/>
		<path class="st1" d="M225.1,201.7"/>
		<path class="st2" d="M308.3,151.9c-0.3-0.3-0.6-0.6-0.8-0.9h0.8C308.3,151.3,308.3,151.6,308.3,151.9z"/>
		<path class="st3" d="M169.8,202.5c0,0.1-0.2,0.2-0.2,0.2C169.6,202.7,169.7,202.6,169.8,202.5z"/>
		<path class="st1" d="M236.3,81.2C236.3,81.2,236.3,81.2,236.3,81.2C236.3,81.2,236.3,81.2,236.3,81.2
			C236.3,81.2,236.3,81.2,236.3,81.2C236.3,81.2,236.3,81.2,236.3,81.2"/>
		<path class="st2" d="M308.9,152.6h-0.6c0-0.3,0-0.5-0.1-0.7C308.5,152.1,308.7,152.3,308.9,152.6z"/>
		<g>
			<path class="st0" d="M142.8,184.3c0,0-0.1-0.1-0.1-0.1"/>
		</g>
		<g>
			<path class="st1" d="M242,204.9"/>
		</g>
		<g>
			<path class="st3" d="M186.1,205.5c0,0.1-0.2,0.1-0.2,0.1C185.9,205.6,186,205.5,186.1,205.5z"/>
		</g>
		<g>
			<path class="st1" d="M252.7,67.6C252.7,67.6,252.7,67.6,252.7,67.6C252.7,67.7,252.8,67.7,252.7,67.6
				C252.8,67.7,252.7,67.7,252.7,67.6C252.7,67.6,252.7,67.6,252.7,67.6"/>
		</g>
		<path class="st4" d="M280.3,174.4c-0.4,3.4-1.1,6.2-1.6,8.3c-0.6,2.2-1.2,4.2-2.3,6.7c-0.6,1.3-1.6,3.5-3.5,5.8
			c-3.2,4.1-5.3,4-5.8,6.5c-0.5,2.5,1.7,2.8,1.4,6.1c-0.2,2.1-1.2,3.7-0.8,6.7c0.1,0.4,0.1,0.7,0.1,0.9c0.5,2.5,1.7,4.2,2.6,5.2
			c-4.4,7.5-10.5,16.3-18.9,25.1c-4.8,5-9.5,9.1-13.8,12.4c-2.1-3.2-2.3-5.2-2-6.5c0.2-1.2,0.9-1.8,0.8-3.2
			c-0.1-1.3-0.7-2.3-1.3-3.1c-1.3-1.9-2.2-1.7-3.3-3.3c-1.1-1.6-1.4-3.3-1.5-4.5c-0.1-1.1-0.6-4.4,1-6.9c1.1-1.8,2.1-1.4,2.9-3.2
			c0.8-1.8,0.5-3.7,0.3-4.6c-0.1-0.9-0.5-2.9-1.8-4.3c-1.3-1.2-2.1-0.6-2.8-1.7c-0.9-1.5,0.5-3.3-0.3-4.5c-1-1.6-4,0.4-5-1
			c-0.9-1.3,1.2-3.5,1.1-8.1c-0.1-2.4-0.1-4.6-1.4-5.5c-1.4-1-2.8,0.6-4.3-0.6c-1.1-0.9-0.9-2.3-2-2.8c-1.1-0.5-2.4,0.6-2.6,0.7
			c-1.7,1.4-1.1,3.2-2.4,4.6c-0.8,0.9-2.6,0.8-6.2,0.7c-3.2-0.1-4.8-0.2-6.3-0.9c-0.4-0.2-1.8-0.8-3.9-2.7c-1.3-1.2-5.4-5-7.2-11.7
			c-0.6-2.2-0.7-5-0.9-10.6c-0.2-7.2-0.4-10.8,0.6-13.5c0.4-1.1,0.9-2,0.9-2c1.2-2.2,2.5-3.2,3.3-4.1c1-1.2,2-3.2,1.8-6.8
			c0.3-0.6,0.7-1.3,1-1.9c0.3-0.5,0.5-1,0.8-1.5c0.1-0.1,0.2-0.3,0.4-0.4c0.8-0.8,2.1-0.6,3.2-0.9c2.1-0.7,1.2-3,3.4-3.9
			c1.1-0.4,1.6,0.1,4.1-0.2c1.7-0.1,3-0.5,3.8-0.8c2.9,0,5.2-0.1,6.8-0.2c1.8-0.1,3-0.2,3.5,0.3c0.7,0.8-1.1,2.2-0.4,3.1
			c0.5,0.6,1.4,0.3,4.8,0.8c2.7,0.3,3.7,0.7,4.3,0.3c0.7-0.5,0-1.2,0.5-2.2c0.4-0.9,1.3-1.3,5-2.8c4.1-1.7,4.7-2.1,5.4-1.8
			c0.2,0.1,1.2,0.6,1,2.9c-1.2-0.3-3.2-0.7-3.5-0.4c-0.3,0.4,1.6,1.5,2.5,2c1.3,0.8,3.4,1.9,6.2,2.8c0.2,0.3,0.7,0.8,1.3,1.2
			c0.5,0.4,0.9,0.6,1,0.6c0.6,0.3,1.8,1.3,4.1,3.8c0.2,0.3,0.5,0.6,0.8,0.9c0,0.2,0,0.5,0.1,0.7c0.2,1.8,0.6,4.1,1.5,6.6
			c1.2,3.2,2.2,4.2,4.7,8.3c4.6,7.8,4,9.8,6.4,11.3C269.9,177.8,273.4,178.5,280.3,174.4z"/>
		<path class="st4" d="M121,206.1C121,206.1,121,206.1,121,206.1c-0.1-0.2-2.3,0.3-3.4,1.5c-0.8,0.9-0.5,1.5-0.8,4.4
			c-0.3,2.4-0.5,2-0.8,4.3c-0.2,1.8-0.2,3.1-0.8,4.4c-0.2,0.4-0.7,1.3-1.8,2c0,0-0.1,0-0.1,0.1c-1.6,0.9-4.3,0.7-4.3,0.7
			c-4.4-0.3-5.5-1.1-6.3-0.5c-1,0.7-0.6,2.7-0.5,2.9c0.2,0.9,0.7,1.5,0.7,2.9c0,0.3,0,0.4,0,0.6c-0.2,1.4-1.5,2.3-2.4,3
			c-0.2,0.2-0.5,0.4-0.8,0.5c-0.4,0.3-0.6,0.3-1.1,0.6c0,0-0.3,0.2-0.8,0.5c-1.4,1-3,2.9-3.4,3.5c-0.4,0.5-0.7,0.8-1,1.3
			c-0.2,0.4-0.4,0.6-0.7,1.1c0,0-0.3,0.4-0.6,0.9c-0.8,1-2.5,2.7-4.6,4.3c-0.3,0.2-0.7,0.5-1.3,0.9c-0.7,0.4-1,0.6-1.7,1
			c-0.6,0.4-1.2,0.7-1.8,1.2c-2.6,1.8-4.7,3.8-6.4,5.7c-4-3.8-8-7.6-12-11.4c0.7-3.6,1.1-5.4,1.4-6.3c0.1-0.3,0.4-1.3,0.6-2.7
			c0.1-0.4,0.1-0.8,0.2-1.2c0.1-0.8,0.1-1.6-0.1-2.9c0,0-0.8-6.8,1.8-10.8c0,0,0.1-0.2,0.3-0.4c0.9-1.5,1.9-3.1,1.6-4.7
			c-0.2-1-0.9-1.8-2.4-3.2c-0.6-0.6-1-1-1.8-1.6c-1.8-1.5-2.8-2.1-3.4-2.6c-1.2-1-1.6-1.9-3.1-6.1c-1.3-3.7-2-5.5-2.6-7.4
			c0,0-2-6.4-0.7-8.7c0.2-0.4,0.5-0.8,0.5-0.8c0.6-0.3,1.3-0.8,2-1.5c0.8-0.8,1.3-1.6,1.6-2.1c0.3-0.4,0.7-0.7,1-1.1
			c2.5-5.6,3.7-7.6,4.4-8c0.1,0,0.4-0.2,0.8-0.6c-0.4-1.2-0.9-1.8-1.4-2c-1.1-0.6-2,0.1-3.4-0.7c-1-0.6-1.4-1.5-1.8-2.2
			c-1.2-2.4-0.2-3.7-1.2-4.8c-1.3-1.3-3.5,0.2-4.6-1.2c-0.8-1,0.1-1.9-0.6-3.1c-0.9-1.6-3.3-0.7-6.8-1.9c-1.6-0.5-4.4-1.4-5.2-3.8
			c-0.3-1-0.2-2.1,0-2.8c-0.8-2.6-1.6-5.2-2.4-7.8c-0.6-7-1.2-9.4-1.8-9.4c-1.2,0-2.4,11.5-2.9,11.5c-0.2,0,0-1.6-0.1-4.2
			c-0.1-5.2-0.1-7.8-0.4-9c-0.3-1.4-0.6-2.3-1-3c-0.7-1.3-1.4-1.7-2-3.1c0,0-0.1-0.3-0.2-0.7c-0.1-0.4-0.3-0.9-0.4-1.5
			c0-0.1-0.3-1.4-0.4-2.3c-0.1-1.9,0.6-2.8,1.3-5.5c0.5-1.7,0.3-1.8,0.8-3.8c0.6-2.5,1.3-4.4,2.3-6.8c2.5-6.1,3.7-9.2,5.2-12.2
			c3.3-6.7,6.4-11.3,8.3-14.2c1.1-1.7,2.5-3.7,4.3-6c1.4-1.9,2.3-2.9,3.8-4.7c4.4-5.2,5.1-5.5,5.6-5.3c1.3,0.4,0.6,3.2,2.8,5.4
			c1.4,1.3,3.4,1.9,4.1,1.2c0.4-0.4,0.1-1,0.6-1.7c0.4-0.5,1.3-1,1.8-0.8c0.8,0.3,0.5,1.6,1.3,2.7c0.9,1.4,2.6,1.5,4.5,1.8
			c2.9,0.3,3.1-0.6,4.8,0c1.3,0.5,1.9,1.4,3.5,1.5c0.4,0,1.1,0,1.6-0.5c0.7-0.7,0.7-2,0.6-2.8c-0.2-4.2-0.3-6.4,0.4-7.9
			c1.2-2.7,4.6-3.4,4.9-3.5c4-0.7,6.8,2.8,7,3.1c1,1.3,0.5,1.5,2.2,6.1c1.5,4,2.5,5.2,1.8,6.7c-0.7,1.5-2.4,2.1-2.3,3.1
			c0.1,1,2,0.8,2.9,2.2c1.1,1.7,0.6,4.9-0.9,6.1c-1.2,1-2.3,0.1-3.2,1.2c-0.9,1-0.1,2.2-1,3.5c-0.6,0.9-1.8,1.8-2.8,1.6
			c-1.9-0.4-1.2-4.5-4-6.5c-1.4-1-3.1-1-3.1-1.9c0-0.5,0.5-1,0.9-1.3c1.1-1,1.8-0.7,3.4-1.6c0.9-0.5,1.7-0.9,2.1-1.8
			c0.3-0.7,0.2-1.4,0-2.5c-0.3-1.9-0.5-3.1-1.4-4C93,67.5,91,67.4,90.6,68c-0.2,0.4,0.4,0.8,0.5,2c0.2,1.6-0.7,3-1.2,3.7
			c-0.5,0.7-1.1,1.6-2.1,2.1c-1.5,0.7-2.6-0.1-3,0.5c-0.6,0.9,1.9,2.7,1.4,4.3c-0.4,1.3-2.8,2-4.6,1.6c-1.3-0.3-2.2-1.1-2.6-1.5
			c-2.8,2.4-5.5,4.7-8.3,7.1c0.2,0.7,0.7,1.9,1.5,3c1.7,2.4,3.4,2.9,4.7,4.2c1.2,1.2,2.3,3.5,1.8,8.4c0.1-1.2,0.7-3.9,3-5.6
			c0.9-0.6,1.7-0.9,2.4-1.1c0.2-2.2,0.4-4.4,0.6-6.6c1-2,2.1-3.9,3.1-5.9c1.7,0.7,3.4,1.4,5.1,2.1c-0.1,2.5-0.2,5-0.4,7.5
			c0.7,0.2,1.3,0.4,2,0.6c0.7-2.4,1.3-3.5,1.7-3.5c0.7,0.1,1.1,3.4,1.2,10c2.9,0.9,3.9,2.5,4.2,3.2c0.6,1.3,0.3,2-0.1,7.3
			c-0.3,3.9-0.2,4.8-0.9,5.3c-1.5,1.1-4.6-1.2-4.5-1.4c0-0.2,1.4,0.4,1.8-0.1c0.3-0.4-0.3-1.1-0.5-3.1c0-0.1,0-0.3,0-0.4
			c-0.1-2.3,1.2-4,0.9-4.4c-0.3-0.4-1.6,1.4-3.6,2c-3.3,1-6.3-1.5-6.7-0.9c-0.2,0.4,1.3,1.1,1.7,3c0.3,1.6-0.5,2.2-0.1,3.5
			c0.6,2.3,3.8,2.6,3.7,3.3c-0.1,0.5-2.4,0.9-4.7,0.4c-2.4-0.4-3.2-1.3-4-0.8c-1.1,0.8-0.4,3.3-1.5,3.9c-0.8,0.4-1.5-0.7-2.4-0.2
			c-0.9,0.5-0.6,1.8-1.7,2.8c-1,1-1.9,0.2-2.9,1.1c-1.3,1-0.5,2.4-1.7,4.3c-0.9,1.5-1.6,1-3.9,3.5c-1.5,1.5-1.8,2.3-1.9,2.9
			c-0.2,0.9,0.1,1,0.1,2.6c0,1.3,0,2.6-0.8,3.6c-0.6,0.8-1.6,1.2-1.9,0.9c-0.3-0.3,0.2-1.1,0.2-3.4v-0.2c-0.1-1.6-0.9-2.9-1.6-3.5
			c-0.8-0.7-1.7-0.5-4-0.4c-5.3,0.3-5.4-0.6-6.7,0.2c-1.1,0.6-2.5,2.6-3.4,6.3c-0.3,1.1-0.5,2.5-0.7,4.2h0.7
			c-0.2,1.3,0.2,2.6,1.1,3.3c0.9,0.7,2.2,0.8,3.1,0.3c1.4-0.8,1.2-2.7,2.5-3.1c0.8-0.3,1.9,0.2,2.3,1c0.4,0.7-0.1,1.4-0.5,4.6
			c-0.1,0.6-0.1,1,0.1,1.3c0.5,0.8,1.5,0.3,2.5,0.8c1.7,0.9,1.9,3.8,2,4.7c0.1,1.8-0.3,3.4-0.7,4.3c1,0.2,2.2,0.6,3.5,1.2
			c1.5,0.7,2.8,1.5,3.8,2.3c0.4-0.1,0.9-0.3,1.4-0.4c3-0.8,5.8-0.8,5.8-0.8c1.2,0,6.1,0.1,9.3,3c1.9,1.7,3.3,4.7,3.7,5.5
			c0.6,1.2,0.7,1.9,1.6,2.6c1.6,1.3,4.1,1.5,4.8,1.6c2.2,0.2,2.9-0.4,3.9,0.2c1,0.6,1.3,1.7,1.5,2.3c0.5,1.9-0.6,2.6-0.2,4.3
			c0.3,1.7,1.6,2.8,2.3,3.4c1.6,1.4,3.7,2,5.2,2.4c0.5,0.2,0.9,0.3,1.2,0.3c1.9,0.5,3.4,0.6,3.9,0.7c3.3,0.4,6.8,0.8,8.1,2.5
			C124.7,197.9,121.2,205.5,121,206.1z"/>
		<path class="st4" d="M135.1,29.2c0.6,1.6,1.1,2.8,1.5,3.6c0.3,0.8,0.6,1.4,0.3,1.8c-0.3,0.4-1.1,0.4-1.6,0.2
			c-0.3-0.1-0.6-0.4-0.9-0.6c-0.2-0.2-0.4-0.3-0.5-0.4c-0.6-0.5-1.6-1.3-1.7-1.1c-0.1,0.1,0.5,1.2,1.3,2c0.5,0.4,1.2,1.1,2.4,1.4
			c0.7,0.2,1.1,0.1,1.3,0.5c0,0,0.1,0.2,0.1,1.3c-0.3,0.9-0.7,1.1-1,1.2c-0.6,0.1-1-0.6-1.7-0.4c-0.4,0.1-0.4,0.4-0.9,0.8
			c-0.6,0.5-1.1,0.6-1.6,0.8c-1,0.5-1,1.3-2,2.7c-1.1,1.5-1.4,1-2.8,2.7c-0.3,0.3-0.4,0.5-2,2.9c-0.2,0.3-1.1,1.7-1.3,2
			c-0.7,0.5-1.5,0.9-2.5,0.9c-1.3,0-1.7-0.7-3.3-0.9c-1.1-0.1-1.1,0.2-2.9,0.3c-2,0.1-2.4-0.4-3.6,0c-1.1,0.3-1.8,1-2.1,1.2
			c-1.5,1.4-1.4,2.7-2.3,2.8c-0.8,0.1-1.7-0.9-2-1.7c-0.5-1.1-0.3-2.1,0-3.6c0.2-0.9,0.6-2.3,1.4-3.9c0.9-1,1.8-1.9,2.7-2.9
			c0.6-0.1,1.4-0.3,2-0.9c0.5-0.6,0.4-1,0.9-2.3c0.1-0.3,0.6-1.2,1.6-3c0.7-1.3,0.9-1.6,0.9-2.2c0-1.1-0.7-1.8-0.8-1.9
			c-0.8-0.8-1.7-0.8-1.9-0.8c0.6-1.3,1.2-2.5,1.7-3.8c1.1-0.2,2.2-0.5,3.4-0.7c0.3,0.4,0.7,0.8,1.2,0.8c0.7,0,0.8-0.9,1.8-1.3
			c0.8-0.3,1,0.1,2.3-0.1c1.3-0.2,1.4-0.6,2.1-0.5c0.8,0.1,0.9,0.5,2.4,1.5c1.2,0.8,2.2,1.1,2.7,1.3c0.8,0.3,1.2,0.4,1.8,0.4
			c0.9-0.1,1.2-0.4,2.1-0.5C134.3,28.9,134.8,29.1,135.1,29.2z"/>
		<path class="st4" d="M125.4,53.1c1.1,0.7,2.2,1.5,3.2,2.2c-0.2,0.5-0.4,0.9-0.6,1.4c-0.9,0.7-1.6,0.7-1.9,0.6
			c-0.1,0-0.3-0.1-0.9-0.4c-0.6-0.3-1.1-0.7-1.4-0.9c-0.4-0.3-0.5-0.6-0.6-0.7c-0.2-0.7,0.5-1.5,1.1-1.8
			C124.7,53.1,125.1,53.1,125.4,53.1z"/>
		<path class="st4" d="M187.5,105.6c0.2-0.5,1.3-0.8,1.9-0.6c0.5,0.2,0.5,0.6,1.1,1.4c0.5,0.8,1.1,1.4,1.8,2.1
			c0.9,0.7,1.4,1,1.8,1.8c0.1,0.2,0.3,0.7,0.2,1.3c-0.1,0.9-0.7,1.4-1.5,2.1c-1,0.9-1.2,1.1-1.4,1.1c-0.4,0-0.9-0.1-1.2-0.5
			c-0.1-0.2-0.1-0.4-0.1-0.5c0-1.1,0.8-1.7,0.9-2.5c0-1-1.1-1.9-1.6-1.8c-0.4,0.1,0.1,1.1-0.5,2c-0.5,0.7-1.6,1.3-2,1
			c-0.4-0.2-0.3-0.9-0.3-1.3c0-0.2,0.1-0.9,0.7-1.6c0.7-0.8,1.2-0.7,1.4-1.2C188.9,107.4,187.1,106.4,187.5,105.6z"/>
		<path class="st4" d="M196.1,133.1c0-0.2,0-0.3,0-0.5c0-0.2,0-0.3,0-0.5c-2,0.8-3.1,1.3-3.3,1c-0.2-0.3,0.7-1,0.4-1.7
			c-0.2-0.5-1-0.8-1.7-0.9l0.6-0.9c0,0,0.1-1.1,0-1.6c-0.2-1.7-2.4-2.4-2.3-3.2c0.1-0.5,1.3-0.5,3.3-1c1.2-0.3,2.1-0.7,2.7-1
			c0.2-1,0.3-2.2-0.4-3.2c-1.1-1.6-3.4-1.5-3.5-2.3c0-0.3,0.5-0.7,1.4-1.4c1.7-1.2,2-1.1,2.5-1.7c0.6-0.9,0-1.3,0.6-3
			c0.3-0.9,0.5-0.9,1.5-2.8c0.8-1.5,1.2-2.2,1.2-2.7c0.3-2.2-1.4-4.2-1.1-4.4c0.3-0.2,1.4,2,3.4,2.7c1.3,0.4,2.8,0,3.7-0.7
			c0.7-0.6,0.5-0.8,1.6-2.9c0.8-1.5,1.4-2.2,2.6-4.4c0.2-0.4,0.5-1,0.6-1.9c0.1-0.5,0.2-1.8-0.4-2.4c-0.4-0.3-0.9-0.2-2.4,0.1
			c-1.9,0.4-2.8,0.6-3.1,0.5c-2.1-0.9-1.6-9-1.7-9c-0.1,0,0.1,1.7-0.8,3.5c0,0,0,0,0,0c-1,2-1.4,2.2-1.6,2.9
			c-0.3,0.9,0.3,1.8,1.2,3.5c1.1,1.9,1.7,1.9,2.1,3.1c0.9,2.3-0.3,5.1-1,5c-0.7-0.1-1.1-2.9-1.7-2.9c-0.6,0-0.6,2.1-1.2,2.1
			c-0.5,0-0.6-1.6-2-2.7c-0.5-0.4-1.3-0.8-1.5-0.6c-0.4,0.4,1.3,2.3,0.7,3.2c-0.3,0.5-1.2,0.6-1.8,0.4c-0.8-0.3-0.9-1-2-2.8
			c-1.4-2.4-2-2.6-2-3.6c0-0.9,0.5-1.4,1.3-2.3c1.4-1.7,2.3-1.4,2.8-2.5c0.4-1-0.3-1.6-0.7-4.3c-0.1-0.9-0.3-2.6-0.1-4.5
			c0.2-2.4,1-4.1,1.3-5c0.6-1.3,1-2.3,1.8-3.2c2.5-2.9,6.6-2.8,6.8-2.8c0.7,0,1.2,0,8.1,2.9c2.2,0.9,3.3,1.5,4.6,1
			c1.6-0.6,2.8-2.6,2.7-4.5c0-1-0.4-1.7-0.9-2.7c-2-3.7-3-5-4-6.9c-1.4-2.6-2.5-4.7-2.2-7.1c0.1-0.7,0.2-0.7,2.2-4.8
			c1.6-3.4,2-4.3,2.6-4.3c0.9,0,1.7,1.8,2,3.3c0.6,3.1-1.6,4-1.8,7.8c-0.1,0.9-0.1,4.7,2.4,6.9c1.8,1.6,3.9,1.6,4.4,1.6
			c0.7,0,2.5,0,3.3-1.4c0.4-0.6,0.3-1.2,0.3-2c-0.1-3-1.6-4.5-1-5.5c0.5-0.7,1.9-0.5,2-0.5c0.7,0.1,1.4,0.5,2,1
			c0.2,1,0.5,2.1,1.1,3.2c0.3,0.7,0.7,1.3,0.8,1.6c0.8,1.3,2.1,3,2.3,2.9c0.3-0.2-1.4-5.4-4.2-7.7c-0.2-0.8-0.3-1.6-0.3-2.3
			c2.3-0.3,2.4-0.3,2.4-0.3c1.3-0.1,2.5,0.2,3.5,0.5c0.3,0.2,0.6,0.3,1,0.5c0,0,0.4,0.2,0.6,0.3c-0.2-0.1-0.8-0.4-1.6-0.7
			c-1.4-2.7-2.9-6-2.2-6.6c0.5-0.4,2.1,0,8.5,6.2c7.7,7.4,13.7,13.1,20,23c7.7,12.2,10.9,22.9,13.5,31.7c0,0,3,9.9,6,29.1
			c0.1,0.5,0.2,1.5,0.4,3.4c0.3,2.4,0.3,3.3,0.1,4.5c-0.1,0.3-0.5,2.6-1.1,2.6c-0.8,0-0.8-3.6-2.9-7.8c-0.3-0.6-1.5-2.9-1.5-2.9
			c-0.5-0.7-1-1.3-1.3-1.6c-1.7-2.1-1.7-2.1-1.9-2.4c-1.3-2.2-1.1-3.3-2-3.7c-1-0.5-1.7,0.8-2.9,0.5c-1.3-0.4-1.2-1.9-2.7-2.6
			c-1-0.5-1.9-0.2-3.3,0.1c-2.7,0.7-3.5,2.1-4.9,1.6c-0.8-0.3-0.7-0.9-1.6-1.1c-1.2-0.3-1.7,0.8-3.4,0.9c-1,0-1.9-0.4-2.4-0.6
			c-1.7-0.8-1.9-1.9-3.1-2c-0.9-0.1-1.9,0.4-2,1.1c-0.1,0.7,0.8,1.4,2.5,2.6c2.1,1.5,3.1,1.7,3.4,1.7c0.5,0.1,1.4,0.2,2.1-0.3
			c0.6-0.5,0.4-1,0.8-1.4c0.8-0.6,2.5,0.3,3.5,1.2c0.3,0.3,1.2,1.2,1.5,2.5c0.1,0.5,0.1,1.3-1,3.9c-1,2.4-1.6,3.6-2.7,4.8
			c-1.2,1.2-1.2,0.6-3.3,2.4c-1.3,1.1-2,2-3,1.9c-0.6-0.1-1-0.5-1.3-0.8c0,0-1.7-2.2-2.9-3.8c-1.1-1.3-2.7-3.3-5.1-5.6
			c-1.1-1.1-2.1-1.8-2.6-2.2c-0.6-0.4-1-0.7-1.3-0.9c-2-1.3-4-2.7-5.2-3.5c0.4-0.1,1-0.3,1.3-0.7c0.3-0.5,0.1-1-0.1-1.9
			c-0.5-2.5,0-3.3-0.6-3.9c-0.4-0.3-0.8-0.3-1.7-0.2c-1.2,0.1-1.9,0.4-4.1,1c-1.4,0.4-1.9,0.5-2.3,0.2c-0.4-0.3-0.5-0.6-1-1.7
			c-0.8-1.6-1.3-2.6-2.1-2.9c-0.3-0.1-1.1-0.3-2.3,0.6c0.2,0.7,0.5,1.6,1,2.5c0.4,0.8,0.9,1.5,1.3,2.1c-0.1,0.4-0.4,1.2-0.9,1.2
			c-0.3,0-0.7-0.3-1.7-1.7c-1.1-1.7-1.2-2.2-1.7-2.9c-0.9-1.2-1.9-1.8-3.5-2.6c-2-1-4.7-2-5-1.5c-0.2,0.4,1.5,1.8,1.8,2.1
			c1.5,1.2,2.2,1.2,3.3,2.4c0.8,0.8,1.4,1.8,1.2,2.1c-0.2,0.2-0.7-0.1-1.1,0.3c-0.3,0.3-0.2,0.7-0.3,1.2c-0.2,1.3-1.4,2.3-1.8,2.1
			c-0.6-0.2,0.7-3.1-0.4-3.9c-0.4-0.3-0.7,0.1-1.6-0.1c-2.1-0.5-2.3-2.9-3.9-3c-1-0.1-0.9,0.9-3,1.9c-1.3,0.6-2.1,0.6-2.2,1.2
			c-0.2,0.8,1.3,1.5,1.3,2.4c0,0.5-0.6,1.2-3.1,1.8C197.8,128.8,197,130.9,196.1,133.1z"/>
		<path class="st4" d="M73.4,52c2.8,0.3,3.8-0.2,4.1-0.7c0.3-0.5,0.1-1,0.5-1.2c0.3-0.1,0.6,0.2,1.8,0.9c1.4,0.8,2.2,1.2,2.5,2
			c0,0.1,0,0.1,0.1,0.2c0.2,0.8-0.4,1.6-1.1,2c-1.1,0.6-2.7-0.2-3.8-0.7c-1.1-0.5-2.4-1.3-3.3-1c0,0,0,0,0,0
			c-0.8,0.3-1.1,1.1-1.2,1.4c-0.9,2.3-1.3,3.5-1.7,3.5c-0.5,0-1.1-1-1.3-2c-0.2-1.4,0.7-2.3,0.5-2.5c-0.2-0.2-1.4,0.6-5,4
			c0.5,0.8,1.1,1.5,1.6,2.3c-0.2,0-0.5,0-0.8,0c-0.5,0-0.7-0.1-1.1-0.1c-0.9-0.1-1.5-0.2-1.6,0c-0.2,0.3,0.4,0.6,1.2,1.8
			c0.7,1.1,1,2.1,1.6,2.2c0.4,0.1,0.5-0.3,1.2-0.5c1.2-0.3,2.4,0.2,2.9,0.4c0.2,0.1,0.6,0.3,1,0.6c0.8,0.5,0.9,1,1.6,1.2
			c0.1,0,0.3,0.1,0.8,0.1c1.5,0.1,2.4-0.4,3.5-0.5c2.1-0.3,3.4,1.2,4,0.7c0.4-0.3,0.1-1.2-0.1-2c-0.8-2.9-0.2-6.8,2.1-8.3
			c1.2-0.8,2.8-0.8,3.1-0.8c2.4,0,3.5,1.3,5.2,0.8c0.7-0.2,1.6-0.7,1.6-1.3c0-1.1-3.2-1.7-3-2.1c0.1-0.3,2.4,0.5,4.5-0.2
			c2.4-0.8,2-2.7,4.9-5.4c1.6-1.5,3.4-2.5,6-3.9c2.2-1.2,3.7-1.8,4.3-3.4c0.1-0.3,0.5-1.4,0-2.4c-0.2-0.5-0.6-0.8-1-1.1
			c-0.4-0.3-1.2-0.8-2.3-1.1c-5.6,1.6-12.7,4.1-20.2,8.2C81.3,46,76.9,49.1,73.4,52z"/>
		<g>
			<path class="st5" d="M216.7,270.5c-17.9,6.1-36.1,9.2-54.6,9.2c-20.9,0-39.9-3.2-57.2-9.7c-17.2-6.5-32.1-15.4-44.6-26.8
				c-12.5-11.4-22.3-25.1-29.2-41c-6.9-15.9-10.4-33.2-10.4-51.9s3.5-36,10.4-51.9c6.9-15.9,16.6-29.6,29.2-41S87.7,37,105.1,30.5
				c17.4-6.5,36.4-9.7,57-9.7c17.2,0,34,2.6,50.3,7.8c16.3,5.2,30.2,13.1,41.7,23.7l-5.5,5.5c-5.5-5.1-11.7-9.5-18.6-13.3
				c-6.9-3.8-14.2-7-21.9-9.5c-7.7-2.5-15.5-4.4-23.3-5.5c-7.8-1.2-15.4-1.7-22.7-1.7c-19.8,0-37.9,3.2-54.2,9.5
				c-16.3,6.3-30.3,15.1-41.9,26.1c-11.6,11.1-20.6,24-27,38.9c-6.4,14.9-9.6,30.9-9.6,47.9c0,17.1,3.1,33,9.4,47.9
				c6.3,14.9,15.2,27.9,26.8,38.9c11.6,11.1,25.6,19.8,41.9,26.1c16.3,6.3,34.5,9.5,54.6,9.5c17.2,0,34.3-2.9,51.1-8.8
				c16.8-5.9,30.7-14.7,41.7-26.5l6.3,5.2C249.4,255.1,234.6,264.4,216.7,270.5z"/>
		</g>
	</g>
	<path class="st2" d="M194,193.8c0,7-1.3,13.3-3.9,18.8c-2.6,5.5-6,10.2-10.3,14c-4.3,3.8-9.4,6.7-15.2,8.6
		c-5.9,1.9-12,2.9-18.3,2.9c-9.8,0-18.7-1.8-26.8-5.5c-7-3.2-13-7.3-17.9-12.4c-1.6,1.3-3.1,2.5-4.7,3.8l1.6-12.6l12,1.6
		c-1.6,1.3-3.2,2.6-4.8,3.9c5.1,5.1,10.8,9,17.2,11.7c7.5,3.2,15.2,4.8,23.2,4.8c5.8,0,11.3-0.9,16.4-2.7c5.2-1.8,9.8-4.4,13.8-7.7
		c4-3.4,7.1-7.5,9.5-12.4c2.3-4.9,3.4-10.5,3.4-16.9c0-6.4-1.2-11.7-3.8-16.1c-2.5-4.3-5.8-8.1-9.8-11.2c-4-3.1-8.5-5.7-13.7-7.8
		c-5.1-2.1-10.3-4-15.4-5.7c-6.5-2.2-12.5-4.5-17.9-6.9c-5.4-2.4-10.1-5.4-14-8.9c-3.9-3.5-7-7.7-9.1-12.6
		c-2.2-4.9-3.2-10.8-3.2-17.8c0-6.8,1.3-12.9,3.9-18.3c2.6-5.4,6.1-9.9,10.5-13.5c4.4-3.7,9.6-6.5,15.4-8.4c5.8-2,12-2.9,18.5-2.9
		c8,0,15.6,1.6,22.8,4.8c5.8,2.6,10.8,6,14.9,10.4c1.6-1.3,3.2-2.7,4.8-4l-1.4,12.6l-12-1.4c1.6-1.3,3.1-2.6,4.7-3.9
		c-3.6-3.8-7.9-6.9-12.9-9.3c-6.4-3-13.4-4.6-21-4.6c-5.3,0-10.5,0.8-15.7,2.3c-5.1,1.6-9.7,3.9-13.9,7.1c-4.1,3.2-7.5,7.2-10,12
		c-2.5,4.8-3.8,10.5-3.8,17c0,6.4,1.1,11.8,3.3,16.2c2.2,4.4,5.2,8.2,8.9,11.3c3.7,3.1,7.9,5.7,12.6,7.7c4.7,2,9.4,3.9,14.3,5.6
		c6.7,2.3,12.9,4.7,18.7,7.1c5.8,2.4,10.9,5.3,15.2,8.7c4.4,3.4,7.8,7.6,10.2,12.5C192.8,180.9,194,186.8,194,193.8z"/>
</g>
</svg>
