<?xml version="1.0" encoding="utf-8"?>
<!-- Generator: Adobe Illustrator 21.0.0, SVG Export Plug-In . SVG Version: 6.00 Build 0)  -->
<svg version="1.1" id="Layer_1" xmlns="http://www.w3.org/2000/svg" xmlns:xlink="http://www.w3.org/1999/xlink" x="0px" y="0px"
	 viewBox="0 0 800 550" style="enable-background:new 0 0 800 550;" xml:space="preserve">
<style type="text/css">
	.st0{fill:#010101;}
	.st1{opacity:0.83;fill:#9FD9D8;enable-background:new    ;}
	.st2{fill:#72C9BE;}
	.st3{opacity:0.83;fill:#B2B1D8;enable-background:new    ;}
	.st4{fill:#978FC5;}
</style>
<g>
	<ellipse class="st0" cx="516.5" cy="341.5" rx="89.2" ry="98.1"/>
	<path class="st1" d="M462.4,361.8C462.4,361.8,462.4,361.7,462.4,361.8"/>
	<path class="st1" d="M459.8,321.2C459.8,321.2,459.8,321.2,459.8,321.2C459.8,321.2,459.8,321.2,459.8,321.2"/>
	<path class="st1" d="M463.7,358.1c-0.1,0.1-0.1,0.1-0.2,0.3"/>
	<path class="st2" d="M506.4,252.8c0.4,1.2,0.7,2.2,1,2.8c0.2,0.6,0.4,1.1,0.2,1.4c-0.2,0.3-0.7,0.3-1.1,0.1
		c-0.2-0.1-0.4-0.3-0.6-0.5c-0.2-0.1-0.3-0.3-0.3-0.3c-0.4-0.5-1.1-1-1.2-0.8c-0.1,0.1,0.3,1,1,1.6c0.3,0.3,0.9,0.8,1.6,1.1
		c0.4,0.1,0.7,0.1,1,0.3c0,0,0.1,0.1,0.1,1c-0.2,0.8-0.5,0.8-0.7,1c-0.4,0.1-0.7-0.5-1.1-0.3c-0.2,0.1-0.3,0.3-0.6,0.6
		c-0.4,0.3-0.7,0.5-1.1,0.6c-0.7,0.3-0.7,1-1.5,2c-0.7,1.1-1,0.8-2,2c-0.2,0.3-0.3,0.3-1.3,2.3c-0.1,0.3-0.9,1.3-1,1.6
		c-0.4,0.3-1,0.8-1.7,0.8c-1,0-1.1-0.6-2.2-0.8c-0.9-0.1-0.7,0.1-2.1,0.3c-1.5,0-1.6-0.3-2.5,0c-0.7,0.3-1.2,0.8-1.6,1
		c-1,1.1-1,2-1.6,2.2c-0.5,0.1-1.1-0.8-1.5-1.3c-0.3-0.8-0.2-1.6,0-2.8c0.1-0.8,0.4-1.8,1-3c0.6-0.8,1.2-1.4,2-2.2
		c0.4-0.1,1-0.3,1.3-0.8c0.4-0.5,0.3-0.8,0.6-1.8c0.1-0.3,0.4-1,1.1-2.3c0.5-1,0.6-1.2,0.6-1.7c0-0.8-0.5-1.3-0.5-1.4
		c-0.5-0.6-1.2-0.6-1.3-0.6c0.4-1,0.9-1.9,1.2-2.9c0.9-0.3,1.6-0.3,2.3-0.6c0.2,0.3,0.5,0.6,0.9,0.6c0.5,0,0.5-0.8,1.2-1
		c0.5-0.3,0.6,0.1,1.6,0c1-0.1,1-0.5,1.5-0.3c0.5,0,0.6,0.3,1.6,1.2c0.9,0.6,1.6,0.8,1.8,1c0.6,0.3,0.9,0.3,1.2,0.3
		c0.6,0,0.9-0.3,1.5-0.3C505.8,252.6,506.2,252.8,506.4,252.8z"/>
	<path class="st2" d="M496.3,271.3c0.7,0.6,1.5,1.1,2.2,1.7c-0.1,0.3-0.3,0.8-0.4,1.1c-0.6,0.6-1.1,0.5-1.3,0.5
		c-0.1,0-0.2-0.1-0.6-0.3s-0.7-0.5-1-0.8c-0.3-0.3-0.4-0.5-0.4-0.6c-0.1-0.6,0.3-1.2,0.9-1.4C495.9,271.3,496.1,271.3,496.3,271.3z"
		/>
	<path class="st2" d="M512.7,257.2c0.7-0.1,1.2,0,1.6,0.1c0.5,0.1,1,0.3,1.3,0.8c0.2,0.5,0.1,0.8,0.1,1.2c-0.1,0.3-0.1,0.6-0.3,0.6
		c-0.2,0.1-0.6-0.1-0.9-0.3c-0.6-0.5-0.9-1.1-1-1c-0.1,0,0.2,0.8,0.3,1.7c0,0.3,0.1,0.8,0,1.2c-0.1,0.3-0.2,1-0.6,1.2
		c-0.2,0.1-0.5,0-1-0.3c-0.9-0.3-1.1-0.6-1.5-1.1c-0.3-0.5-0.3-1-0.3-1.3c0-1.3,0.6-3.1,1.6-3.1
		C512.1,256.9,512.5,256.9,512.7,257.2z"/>
	<path class="st3" d="M516.5,331.1"/>
	<path class="st3" d="M536.7,291.8L536.7,291.8L536.7,291.8L536.7,291.8L536.7,291.8"/>
	<path class="st3" d="M573.6,332.1C573.6,332,573.6,332,573.6,332.1"/>
	<path class="st3" d="M533,344.8"/>
	<path class="st3" d="M529.9,385"/>
	<path class="st4" d="M539.4,312.2c0.1-0.5,1-0.8,1.3-0.5c0.4,0.3,0.4,0.6,0.9,1.4s0.9,1.4,1.5,2c0.6,0.8,1.1,1.1,1.3,1.9
		c0.1,0.3,0.2,0.8,0.2,1.3c0,0.8-0.4,1.3-1,1.9c-0.7,0.8-0.9,1-1,1c-0.3,0-0.7-0.1-1-0.6c-0.1-0.3-0.1-0.3-0.1-0.5
		c-0.1-1.1,0.5-1.6,0.5-2.4c0-1-1-1.9-1.2-1.8c-0.3,0.1,0.1,1.1-0.3,1.8c-0.3,0.8-1.1,1.1-1.5,0.8c-0.3-0.3-0.3-1-0.2-1.2
		c0-0.1,0-0.8,0.5-1.6s0.9-0.6,1-1.1C540.5,314.1,539.2,313,539.4,312.2z"/>
	<path class="st4" d="M606.7,345.6c-0.6,2.2-1.7,4.7-2,4.7c-0.3-0.1,1-5.4,0.1-8.3c-0.4-1.3-1-2.4-1-2.4c-0.3-0.6-0.7-1.1-1-1.3
		c-1.1-1.7-1.1-1.7-1.3-1.9c-1-1.8-0.7-2.7-1.5-3c-0.7-0.3-1.1,0.8-2.1,0.3c-1-0.3-0.9-1.6-1.8-2.2c-0.7-0.3-1.3-0.3-2.3,0.1
		c-1.8,0.6-2.5,1.7-3.4,1.2c-0.6-0.3-0.5-0.8-1-0.8c-0.9-0.3-1.2,0.8-2.3,0.8c-0.7,0-1.3-0.3-1.6-0.5c-1.2-0.8-1.3-1.6-2.2-1.7
		c-0.6-0.1-1.3,0.3-1.3,0.8c-0.1,0.6,0.6,1.1,1.7,2.2c1.5,1.2,2.2,1.4,2.3,1.4c0.4,0,1,0.1,1.5-0.3s0.2-0.8,0.6-1.1
		c0.6-0.5,1.7,0.3,2.5,1c0.2,0.3,0.9,1,1,2c0.1,0.5,0.1,1.1-0.7,3.1c-0.7,1.9-1.1,2.9-2,3.9c-0.9,1-0.9,0.5-2.2,1.9
		c-1,1-1.5,1.7-2.1,1.4c-0.4-0.1-0.7-0.3-1-0.8c0,0-1.2-1.8-2.1-3c-0.7-1.1-1.8-2.8-3.5-4.6c-0.9-0.8-1.5-1.4-1.8-1.8
		c-0.4-0.3-0.7-0.6-1-0.8c-1.3-1.1-2.8-2.2-3.6-2.9c0.3,0,0.7-0.3,1-0.6c0.2-0.3,0.1-0.8,0-1.4c-0.3-2,0-2.7-0.4-3.1
		c-0.2-0.3-0.5-0.3-1.2-0.3c-0.9,0-1.3,0.3-2.8,0.8c-1,0.3-1.3,0.3-1.6,0.3c-0.3-0.3-0.3-0.5-0.7-1.4c-0.5-1.3-1-2.2-1.5-2.4
		c-0.2-0.1-0.7-0.3-1.6,0.5c0.1,0.6,0.4,1.3,0.7,2c0.3,0.8,0.6,1.2,1,1.7c-0.1,0.3-0.3,1-0.6,1c-0.2,0-0.5-0.3-1.1-1.4
		c-0.9-1.3-0.9-1.8-1.2-2.4c-0.6-1-1.3-1.4-2.5-2.2c-1.3-0.8-3.3-1.7-3.5-1.2c-0.2,0.3,1,1.4,1.2,1.7c1,1,1.6,1,2.2,1.9
		c0.5,0.8,1,1.4,0.9,1.7c-0.1,0.3-0.5-0.1-0.9,0.3c-0.2,0.3-0.1,0.6-0.2,1c-0.1,1-1,1.8-1.2,1.7c-0.4-0.3,0.5-2.5-0.3-3.1
		c-0.3-0.3-0.5,0-1.1-0.1c-1.5-0.3-1.6-2.3-2.7-2.4c-0.6-0.1-0.6,0.8-2.1,1.6c-1,0.5-1.5,0.5-1.6,1c-0.1,0.8,1,1.2,1,1.9
		c0,0.3-0.4,1-2.2,1.4c1.1,2.4,1,2.8,1,2.8c-0.1,0.3-0.4,0.6-1.6,1.1c0.3,0.6,0.4,1.3,0.5,1.8c1-0.5,2.2-0.8,3.8-1.4
		c3.3-1.2,6.5-2.3,7.7-0.8c1,1.1,0.2,2.4,1.6,4.1c0.5,0.8,1,0.8,3.2,2.2c3.6,2.2,4,2.9,4.7,2.7c1.6-0.8,0.5-6.5,1.1-6.6
		c0.3,0,0.5,1.3,1.8,2.7c0.3,0.3,1,0.8,1.7,1.1c0.3,0.1,0.6,0.1,0.6,0.1c0.2,0,0.3,0,0.3,0c0.7-0.1,1.6-0.3,2.3-0.3
		c0.2,0,0.6,0,1,0.1c0.2,0.3,0.4,0.8,0.9,1.1c0.3,0.3,0.5,0.3,0.7,0.6c0.7,1,0.1,2.5,2.5,5.9c2.3,3.5,2.2,3.9,8.6,14
		c0.5,0.8,1.1,1.8,2.2,2.2c1.6,0.5,2.6-0.8,5.2-0.8c1,0,1.8,0.1,2.5,0.3c0,0.8,0,1.6-0.2,2.7c-0.1,0.8-0.3,2.4-1.1,4.2
		c-0.7,1.7-1.5,2.7-2.5,3.9c-0.6,0.8-1.3,1.6-2.8,3.1c-2.7,2.9-3.1,3.3-3.5,4.4c-0.6,1.6-0.4,3.1-0.3,3.6c0,0.3,0.1,0.3,0.1,0.5
		c0.2,0.8,0.5,1.7,0.7,2.2c0.1,0.3,0.1,0.3,0.4,0.8c0.5,1.1,0.9,1.9,0.9,1.9c0.9,1.9-1.2,5.4-1.2,5.4c-3.5,6-17.4,23.3-19.8,21.2
		c-0.3-0.3-0.1-0.5-1.2-2.9c-0.5-1.2-0.7-1.8-1.5-3.3c-0.5-1.2-1-1.9-0.9-2.9c0.1-0.8,0.6-1.1,0.6-2c0-0.8-0.5-1.4-0.9-1.9
		c-1-1.2-1.5-1.1-2.2-2c-0.9-1-1-2-1-2.8c-0.1-0.8-0.4-2.8,0.7-4.4c0.9-1.1,1.5-0.8,2.1-1.9s0.4-2.3,0.3-2.9
		c-0.1-0.6-0.3-1.8-1.2-2.7c-0.9-0.8-1.5-0.3-1.8-1.1c-0.6-1,0.3-2-0.2-2.8c-0.7-1-2.8,0.3-3.4-0.8c-0.6-0.8,1-2.2,0.9-5
		c0-1.4-0.1-2.9-1-3.5c-1-0.6-2,0.3-3-0.3c-0.9-0.6-0.6-1.4-1.3-1.8c-0.9-0.3-1.6,0.3-1.7,0.5c-1.1,0.8-0.9,2-1.6,2.9
		c-0.6,0.5-1.8,0.5-4.3,0.3c-2.2-0.1-3.3-0.1-4.4-0.6c-0.2-0.1-1.2-0.5-2.7-1.7c-1-0.8-3.7-3.1-4.8-7.4c-0.4-1.4-0.4-3.1-0.5-6.6
		c-0.1-4.4-0.2-6.8,0.5-8.5c1-2.3,1.7-1.9,3.9-5.4c2.3-3.8,1.6-4.4,3.4-6.4c0.9-1,1.6-1.7,2.8-2.3c0-0.3,0-0.8,0-1.3
		c0-0.3,0-0.6,0-0.8c-1.5,0.8-2.2,1.1-2.2,0.8c-0.1-0.3,0.5-0.8,0.3-1.3c-0.1-0.5-0.7-0.6-1.1-0.8l0.4-0.8c0,0,0.1-0.8,0-1.3
		c-0.1-1.3-1.6-1.9-1.6-2.5c0.1-0.5,1-0.3,2.2-0.8c0.9-0.3,1.5-0.6,2-0.8c0.1-0.8,0.2-1.8-0.2-2.5c-0.7-1.3-2.3-1.2-2.3-1.9
		c0-0.3,0.3-0.6,1-1.1c1.1-1,1.5-0.8,1.7-1.4c0.4-0.8,0-1.1,0.4-2.4c0.2-0.8,0.3-0.8,1-2.3c0.5-1.2,0.9-1.8,1-2.2
		c0.2-1.8-1-3.3-0.7-3.5c0.2-0.1,1,1.7,2.3,2.2c1,0.3,2,0,2.6-0.6c0.5-0.5,0.3-0.8,1.1-2.3c0.6-1.2,1-1.8,1.7-3.6
		c0.1-0.3,0.4-0.8,0.4-1.6c0.1-0.5,0.2-1.4-0.3-1.9c-0.3-0.3-0.6-0.1-1.7,0.1c-1.3,0.3-2,0.5-2.2,0.3c-1.5-0.8-1-7.4-1.1-7.4
		c0,0,0.1,1.4-0.6,2.9l0,0c-0.7,1.6-1,1.8-1.1,2.3c-0.2,0.8,0.2,1.4,0.9,2.9c0.9,1.6,1.1,1.6,1.5,2.5c0.6,1.8-0.2,4.1-0.7,4.1
		s-0.7-2.4-1.2-2.4c-0.4,0-0.4,1.7-0.9,1.7c-0.3,0-0.4-1.3-1.3-2.2c-0.3-0.3-1-0.8-1-0.5c-0.3,0.3,1,1.8,0.5,2.7
		c-0.2,0.3-0.9,0.5-1.2,0.3c-0.5-0.3-0.6-0.8-1.3-2.3c-1-1.9-1.5-2.2-1.3-2.9c0-0.8,0.4-1.2,1-1.8c1-1.3,1.6-1.1,2-1.9
		c0.3-0.8-0.2-1.3-0.4-3.5c-0.1-0.8-0.2-2-0.1-3.6c0.2-1.9,0.7-3.3,1-3.9c0.4-1.1,0.7-1.8,1.2-2.7c1.7-2.3,4.7-2.2,4.8-2.2
		c0.5,0,0.9,0,5.5,2.4c1.6,0.8,2.2,1.2,3.2,0.8c1.1-0.5,2-2,1.8-3.6c0-0.8-0.3-1.3-0.6-2.2c-1.5-3-2.1-3.9-2.8-5.5
		c-1-2-1.7-3.9-1.6-5.8c0.1-0.6,0.2-0.6,1.6-3.9c1.1-2.8,1.3-3.5,1.8-3.5c0.6,0,1.2,1.4,1.5,2.7c0.4,2.5-1.1,3.3-1.3,6.3
		c0,0.8-0.1,3.8,1.6,5.5c1.2,1.3,2.7,1.3,3.1,1.3c0.5,0,1.7,0,2.3-1.1c0.2-0.5,0.2-1,0.2-1.6c0-2.4-1.1-3.6-0.7-4.4
		c0.3-0.6,1.3-0.3,1.5-0.3c0.5,0.1,1,0.3,1.5,0.8c0.1,0.8,0.4,1.7,0.7,2.7c0.2,0.6,0.5,1.1,0.6,1.3c0.5,1.1,1.5,2.4,1.6,2.3
		c0.2-0.1-1-4.4-2.9-6.3c-0.1-0.8-0.2-1.3-0.2-1.9c1.6-0.3,1.6-0.3,1.6-0.3c1-0.1,1.7,0.3,2.3,0.5c0.2,0.1,0.4,0.3,0.6,0.3
		c0,0,0.3,0.1,0.4,0.3c-0.2-0.1-0.5-0.3-1.1-0.6c-1-2.2-2.2-4.7-1.5-5.4c1.2-1.2,8.4,5.2,12.5,9.9c9.8,10.8,13.7,22.9,16.8,32.4
		C604.5,311.8,610.7,332.4,606.7,345.6z"/>
	<path class="st2" d="M455,270.4c0.5,0.5-2.2,3.5-1.1,5.4c0.6,1.1,2.3,1.6,2.8,1.1c0.3-0.3,0.1-0.8,0.4-1.3c0.3-0.5,1-0.8,1.2-0.6
		c0.5,0.3,0.3,1.2,1,2.2c0.6,1.1,1.8,1.2,3.1,1.4c2,0.3,2.2-0.5,3.3,0c1,0.5,1.3,1.2,2.3,1.2c0.3,0,0.9,0,1.1-0.3
		c0.5-0.6,0.5-1.6,0.4-2.3c-0.1-3.3-0.2-5,0.3-6.4c0.9-2.2,3.2-2.7,3.5-2.8c2.8-0.6,4.8,2.3,4.9,2.5c0.7,1.1,0.3,1.2,1.5,4.9
		c1,3.3,1.6,4.2,1.2,5.4c-0.5,1.2-1.6,1.7-1.6,2.5c0.1,0.8,1.3,0.6,2.1,1.8c0.7,1.3,0.4,3.9-0.6,4.9c-0.9,0.8-1.6,0.1-2.2,1
		c-0.6,0.8-0.1,1.8-0.7,2.9c-0.4,0.8-1.2,1.4-2,1.3c-1.3-0.3-0.9-3.6-2.8-5.3c-1-0.8-2.2-0.8-2.2-1.6c0-0.3,0.3-0.8,0.6-1.1
		c0.7-0.8,1.2-0.6,2.3-1.2c0.6-0.3,1.2-0.8,1.5-1.4c0.2-0.6,0.2-1.1,0-2c-0.2-1.6-0.3-2.5-1-3.3c-0.9-1-2.2-1.1-2.5-0.6
		c-0.2,0.3,0.2,0.6,0.3,1.6c0.1,1.3-0.5,2.4-0.9,3c-0.3,0.6-0.7,1.3-1.6,1.7c-1,0.6-1.8-0.1-2.1,0.3c-0.4,0.8,1.3,2.2,1,3.5
		c-0.3,1.1-2,1.6-3.2,1.2c-1-0.3-1.6-0.8-1.7-1.2c-2,1.9-3.9,3.8-5.9,5.7c0.2,0.6,0.5,1.4,1,2.4c1.1,1.9,2.3,2.3,3.3,3.3
		c0.9,1,1.6,2.9,1.2,6.8c0.1-1,0.5-3.1,2.1-4.4c0.6-0.5,1.2-0.8,1.6-0.8c0.1-1.8,0.3-3.6,0.5-5.3c0.7-1.6,1.5-3.1,2.2-4.7
		c1.1,0.6,2.3,1.2,3.5,1.7c-0.1,2-0.2,3.9-0.3,6c0.5,0.1,1,0.3,1.5,0.5c0.5-1.9,1-2.9,1.2-2.8c0.5,0.1,0.9,2.8,0.9,8
		c2,0.8,2.7,2,2.9,2.7c0.4,1.1,0.2,1.6-0.1,5.8c-0.2,3.1-0.1,3.9-0.6,4.4c-1,0.8-3.2-1-3.1-1.2c0-0.1,1,0.3,1.2-0.1
		c0.2-0.3-0.2-0.8-0.3-2.5c0-0.1,0-0.3,0-0.3c-0.1-1.9,0.9-3.3,0.6-3.5c-0.2-0.3-1.1,1.1-2.6,1.6c-2.2,0.8-4.4-1.2-4.7-0.8
		c-0.2,0.3,0.9,1,1.1,2.4c0.2,1.3-0.3,1.8-0.1,2.8c0.4,1.8,2.7,2.2,2.6,2.7s-1.7,0.8-3.3,0.3c-1.6-0.3-2.2-1.1-2.8-0.6
		c-0.9,0.6-0.3,2.7-1,3.1c-0.5,0.3-1-0.6-1.6-0.1c-0.6,0.3-0.4,1.4-1.1,2.3c-0.7,0.8-1.3,0.3-2.1,0.8c-1,0.8-0.3,1.9-1.2,3.5
		c-0.6,1.2-1.1,0.8-2.8,2.8c-1,1.2-1.2,1.8-1.3,2.3c-0.1,0.8,0.1,0.8,0.1,2.2c0,1.1,0,2-0.6,2.9c-0.4,0.6-1.1,1-1.3,0.8
		c-0.2-0.3,0.2-0.8,0.1-2.7v-0.1c0-1.3-0.6-2.4-1.1-2.9c-0.6-0.6-1.2-0.5-2.8-0.3c-3.7,0.1-3.8-0.5-4.8,0.1c-1.6,1.1-2.1,3.5-2.3,5
		c-0.4,2.3-0.9,4.7,0.4,5.7c0.5,0.5,1.5,0.6,2.2,0.3c1-0.5,0.9-1.9,1.7-2.2c0.5-0.1,1.3,0.1,1.6,0.8c0.2,0.5-0.1,1-0.3,3.3
		c-0.1,0.5-0.1,0.8,0.1,1c0.3,0.6,1,0.3,1.7,0.6c1.1,0.6,1.2,2.7,1.3,3.3c0.1,1.3-0.2,2.4-0.5,3c0.7,0.1,1.6,0.5,2.3,0.8
		c1,0.5,2,1.1,2.6,1.7c0.3-0.1,0.6-0.3,1-0.3c2.1-0.6,4-0.5,4-0.5c0.9,0,4.2,0.1,6.4,2.2c1.3,1.2,2.2,3.3,2.5,3.9
		c0.4,0.8,0.5,1.3,1.1,1.9c1.1,1,2.8,1.1,3.3,1.2c1.5,0.1,2-0.3,2.7,0.3c0.7,0.3,1,1.2,1,1.7c0.3,1.4-0.4,1.8-0.2,3
		c0.2,1.2,1.1,2,1.6,2.4c1.1,1,2.6,1.4,3.5,1.8c0.3,0.1,0.6,0.3,0.9,0.3c1.3,0.3,2.3,0.5,2.7,0.5c2.2,0.3,4.8,0.6,5.5,1.9
		c1.6,2.3-1.1,8-1,8l0,0l0,0c-0.1-0.1-1.6,0.3-2.3,1.1c-0.6,0.6-0.3,1.1-0.6,3.1c-0.2,1.7-0.4,1.4-0.6,3.1c-0.1,1.2-0.2,2.3-0.6,3.1
		c-0.1,0.3-0.5,1-1.2,1.3c0,0,0,0-0.1,0c-1.1,0.6-3,0.5-3,0.5c-3-0.3-3.8-0.8-4.3-0.3c-0.7,0.5-0.4,1.9-0.4,2c0.1,0.6,0.5,1.1,0.5,2
		c0,0.3,0,0.3,0,0.5c-0.2,1-1,1.6-1.6,2.2c-0.2,0.1-0.3,0.3-0.5,0.3c-0.3,0.1-0.4,0.3-0.9,0.3c0,0-0.2,0.1-0.5,0.3
		c-1,0.8-2.1,2-2.3,2.4c-0.3,0.3-0.5,0.6-0.7,1c-0.2,0.3-0.3,0.5-0.5,0.8c0,0-0.2,0.3-0.4,0.6c-0.6,0.8-1.7,1.9-3.2,3
		c-0.2,0.1-0.5,0.3-1,0.6c-0.5,0.3-0.7,0.3-1.1,0.8c0,0-0.4,0.3-1.2,0.8c-1.5,1-2.2,2.8-3.4,3.5c-2,1.2-5.4-0.3-7.3-2.8
		c-0.2-0.3-2.1-2.8-1.8-5.7c0.1-1,0.5-2.9,0.9-3.9c0.2-0.8,0.4-1.7,0.6-2.8c0.1-0.5,0.1-1.2,0-2c0,0-0.5-4.9,1.3-7.7
		c0,0,0.1-0.1,0.2-0.3c0.6-1.1,1.3-2.2,1.1-3.3c-0.1-0.8-0.6-1.3-1.6-2.3c-0.4-0.3-0.7-0.8-1.2-1.2c-1.2-1.1-2-1.6-2.3-1.9
		c-0.9-0.8-1-1.3-2.1-4.4c-1-2.7-1.3-3.9-1.7-5.3c0,0-1.3-4.6-0.4-6.3c0.2-0.3,0.4-0.6,0.4-0.6c0.4-0.3,1-0.6,1.5-1.1
		c0.5-0.6,1-1.1,1.1-1.6c0.2-0.3,0.5-0.5,0.7-0.8c1.7-3.9,2.7-5.4,3.1-5.7c0.1,0,0.3-0.1,0.5-0.3c-0.2-0.8-0.6-1.2-1-1.4
		c-0.7-0.5-1.5,0-2.3-0.5c-0.6-0.3-1-1.1-1.2-1.6c-0.9-1.8-0.1-2.7-0.9-3.3c-1-1-2.5,0.1-3.2-0.8c-0.5-0.8,0.1-1.3-0.4-2.2
		c-0.6-1.2-2.2-0.5-4.8-1.4c-1.3-0.5-3.1-1.2-3.5-2.8c-0.5-1.8,1-3.1,0.4-5.3c-0.3-1.3-1-1.4-1.7-2.8c-1.8-3.3-0.9-7.6-1.2-7.6
		c-0.5,0-1.7,9.3-2.1,9.3c-0.1,0,0-1.3,0-3.3c-0.1-4.2-0.1-6.3-0.2-7.2c-0.2-1.1-0.4-1.8-0.7-2.4c-0.5-1.1-1-1.3-1.5-2.5l0,0l0,0
		l0,0c0,0-0.2-0.8-0.4-1.7c-1.3-7.8,2.2-18.9,2.2-18.9c3.3-9.9,8-16.5,9.6-18.7C447.7,274.7,454.4,269.8,455,270.4z"/>
	<path class="st2" d="M491.7,385L491.7,385C491.6,385.1,491.6,385.1,491.7,385z"/>
	<path class="st2" d="M462.5,263.8c0.4,0.6,2.5,0.3,3.1-0.6c0.3-0.5,0.1-1,0.4-1.1c0.2-0.1,0.5,0.3,1.3,0.8c1,0.8,1.6,1.1,1.8,1.9
		c0,0,0,0.1,0,0.3c0.1,0.8-0.3,1.6-0.9,1.9c-0.9,0.5-2.1-0.3-2.8-0.6c-0.9-0.5-1.7-1.3-2.5-1l0,0c-0.6,0.3-0.9,1-1,1.3
		c-0.6,2.2-1,3.3-1.2,3.3c-0.3,0-0.9-1-1-1.9c-0.2-1.3,0.3-1.9-0.1-2.3c-0.4-0.5-1.6,0-2.2,0.5c-0.3,0.3-1.3,1.2-1.3,2.8
		c0,1.7,1.2,2.5,1.3,2.7c-0.3,0-0.9,0-1.5-0.1c-1-0.3-1.5-0.8-1.6-0.6c-0.2,0.3,0.5,0.8,1.1,2.3c0.6,1.2,0.7,2,1.1,2
		c0.3,0,0.3-0.3,1-0.5c1-0.3,1.8,0.3,2.2,0.5c0.1,0.1,0.4,0.3,0.7,0.6c0.5,0.5,0.7,1,1.2,1.2c0.1,0,0.2,0.1,0.6,0.1
		c1.1,0.1,1.7-0.3,2.6-0.5c1.6-0.3,2.5,1.1,3,0.6c0.3-0.3,0.1-1.1-0.1-1.9c-0.6-2.8-0.1-6.5,1.6-8c1-0.8,2.1-0.8,2.3-0.8
		c1.7,0,2.6,1.2,3.9,0.8c0.5-0.3,1.1-0.8,1.1-1.2c0-1-2.3-1.7-2.2-1.9c0.1-0.3,1.7,0.5,3.4-0.1c1.7-0.8,1.6-2.5,3.7-5.2
		c1.2-1.4,2.6-2.3,4.5-3.6c1.6-1.1,2.8-1.7,3.3-3.1c0.1-0.3,0.4-1.3,0-2.3c0,0-0.2-0.6-0.7-1c-1.1-1-8.7-1.7-18,5
		C466.7,257.5,461.9,262.6,462.5,263.8z"/>
</g>
<path class="st0" d="M213.3,197.8c-1.6-1.3-2.6-3-2.8-5.2l2.2-3.3c0.7,0,2,0.3,3.6,0.8c2,0.3,3.4,0.6,4.4,0.6c2.2,0,4.4-1.1,6.3-3.3
	c1.8-2.2,3.2-4.9,4.1-8.5c1.6-6.4,2.5-12.1,2.5-17.2c0-8.8-2.7-18.1-8-27.8l-2.2-3.9c-2.5-4.4-4.5-8.3-6.1-11.8
	c-1.6-3.5-3.1-7.2-4.2-11.2c-1.6-5.2-2.2-10.4-2.2-15.7c0-5.9,1.2-12.1,3.8-18.4c1.2-3,3.1-5.5,5.4-7.5c2.3-1.9,5-2.9,8-2.9
	c2.2,0,4.4,0.8,6.5,2.3c2,1.6,3,3.3,3,5.5c0,1.2-0.4,2.2-1.3,2.8c-1,0.8-2,1-3.3,1c-1.5,0-2.8-0.3-4-1.2c-2.8,0.1-5,2.8-6.7,7.8
	c-1.5,4.7-2.2,8.5-2.2,11.6c0,3.9,0.6,7.8,1.7,11.7c1.1,3.9,2.6,7.5,4.4,10.7l4.2,8l6.7,13.2c1.7,3.8,3.2,8,4.3,13
	c1.1,4.9,1.6,10,1.6,15.1c0,8.2-1.7,15.9-5.4,23.3c-1.7,3.8-4.3,6.8-7.6,9c-3.3,2.3-6.9,3.3-10.8,3.3v0.6
	C216.9,200,215,199.2,213.3,197.8z"/>
<path class="st0" d="M273.9,197.6l-0.2-7.8c-0.1-2.3-0.2-4.9-0.2-7.6l0.2-6.8c-0.4-1.4-1.3-16-2.9-43.9c-1.6-27.7-2.5-45.5-2.7-53.5
	c-7.4-0.3-12.2-1.1-14.2-2.4c-1.5-1.1-2.2-2.3-2.2-3.6c0-1.1,0.7-2,2.1-2.9c1.3-0.8,2.7-1.3,4.1-1.3c3.6,0,8,0.3,13.1,0.8
	c4.8,0.8,9.2,1,13.1,1h1.6h1.6c4,0,6,1.6,6,4.9c0,1.6-0.6,2.9-2,3.9c-1.2,1-2.8,1.4-4.4,1.4c-1.1,0-2.8-0.3-5-0.6l-3.8-0.8l-0.2,1
	l-0.2,1c0,11.9,1.1,30.8,3.3,56.8c2.1,24.4,3.1,43.4,3.1,56.8c0,1.6-0.7,3-2.1,4.2c-1.3,1.2-2.9,1.8-4.5,1.8L273.9,197.6z"/>
<path class="st0" d="M404.4,190.4c-2.7-6.9-4.7-14.1-6-21.4l-1.4-6.8c-3.7-19-6-30-7.1-32.7h-2.2c0,3.9-0.1,7.4-0.2,10.6v11
	c0,17.8,1.2,31.8,3.6,41.8l-2.2,5.4h-5.4l-2.5-3l0.2-13.4c0-12.1-0.6-30.2-1.7-54.7c-1-26-1.6-44.2-1.6-54.7c0-6.4,2.2-9.6,6.4-9.6
	c6.9,0,12.5,1.9,17,5.7c4.5,3.8,6.6,8.9,6.6,15.7v14c0,2-0.3,4.4-1,6.9c-0.6,2.7-1.3,4.7-2.2,6.3l-3.6,7.2l-3.1,6l1,4.9l2.7,14.2
	c1.7,10.2,3.5,18.7,5.2,25c1.6,6.4,3.7,12.1,6.1,17.5l1.1,2.4c1.2,2.7,2,4.9,2,6.4c0,1.3-0.4,2.5-1.1,3.5c-0.7,1-1.7,1.4-3.1,1.4
	C409.3,200,406.8,196.8,404.4,190.4z M395.7,107.7c2-6.6,3-12.7,3-18.3c0-4.2-0.5-8.3-1.6-12.1c-0.6-2.2-1.7-3.8-3.2-4.9
	c-1.5-1.1-3.3-1.7-5.4-1.7l-0.4,1l-0.4,1.8l0.4,23.6c0.2,6.9,0.4,14.5,0.4,22.6C391.3,118.2,393.7,114.3,395.7,107.7z"/>
<path class="st0" d="M445.9,196.7l-0.2-7.8c-0.1-2.3-0.2-4.9-0.2-7.6l0.2-6.8c-0.4-1.4-1.3-16-2.9-43.9c-1.6-27.7-2.5-45.5-2.7-53.5
	c-7.4-0.3-12.2-1.1-14.2-2.4c-1.5-1.1-2.2-2.3-2.2-3.6c0-1.1,0.7-2,2.1-2.9c1.3-0.8,2.7-1.3,4.1-1.3c3.6,0,8,0.3,13.1,0.8
	c4.8,0.8,9.2,1,13.1,1h1.6h1.6c4,0,6,1.6,6,4.9c0,1.6-0.6,2.9-2,3.9c-1.2,1-2.8,1.4-4.4,1.4c-1.1,0-2.8-0.3-5-0.6l-3.8-0.8l-0.2,1
	l-0.2,1c0,11.9,1.1,30.8,3.3,56.8c2.1,24.4,3.1,43.4,3.1,56.8c0,1.6-0.7,3-2.1,4.2s-2.9,1.8-4.5,1.8L445.9,196.7z"/>
<path class="st0" d="M496.6,197.5c-2.5-1.4-4.4-3.5-6-6.1c-3.1-5.7-5-11.9-6-19c-1-6.1-1.3-13.5-1.3-22c-0.4-14.5-0.6-32.1-0.6-52.8
	l-0.2-15.4c-0.1-0.8-0.2-2.2-0.2-3.9c-0.3-5-0.4-8.2-0.4-9.1c1.1-2.8,2.5-4.2,4-4.2c1.6,0,2.9,1.2,4.1,3.6c1.2,2.4,1.8,5,1.8,7.8
	v54.4c0,5.3,0.4,12.4,1.3,21.2c1,11,1.3,18.1,1.3,21.2c0,9.9,4,14.8,12.2,14.8c9.2,0,13.8-35.9,13.8-107.7V68.9v-1.8
	c-0.1-0.3-0.2-1-0.2-1.6c0-1.6,0.3-2.8,1-3.5c0.7-0.8,2.1-1.1,4.1-1.1c1.6,0,3,0.5,3.9,1.4c1,1,1.6,2.2,1.8,3.5
	c0.1,0.8,0.2,2.3,0.2,4.6c0,2.2-0.2,5.5-0.6,10.2c-0.5,3.9-0.7,7.2-0.7,10c0,3-0.1,5.8-0.4,8.2l-0.4,8.5v1.6
	c0.1,0.5,0.2,1.1,0.2,1.8c0,59.3-8.2,88.8-24.8,88.8C501.9,199.5,499.1,198.9,496.6,197.5z"/>
<path class="st0" d="M558,197.9c-1.6-7.1-2.5-16.8-2.5-29.4l0.4-17.8c0.2-5.3,0.4-11.3,0.4-17.8c-0.7-1.8-1.1-3.5-1.1-5v-0.6
	c1.2-2.5,2-8.3,2-17.2l0.2-9.1c0.1-2.9,0.2-6.3,0.2-9.8c0-7.8-0.5-14.1-1.6-18.6c0.4-1.9,1-3.5,2-4.9c1-1.4,2-2,3.3-2h8.5
	c3.6,0,6.7,0.8,9.3,2.5c2.7,1.7,4.8,4.1,6.1,7.1c2.6,5.4,3.8,11.9,3.8,19.4c0,5.3-0.1,9.5-0.2,12.6c-0.3,3.9-1,7.4-2,10.6
	c-0.4,1.7-1,3.1-1.6,4.4c-0.7,1.1-1.7,2.5-3,4.1c-1.7,2.3-4.8,4.4-8.8,6.4c-1.6,1-3.8,1.8-6.5,2.7v21.4l0.4,12.7l0.4,6.3
	c0.5,7.5,0.7,13.8,0.7,19c0,1.6-0.6,3-2,4.1c-1.2,1.1-2.8,1.7-4.4,1.7L558,197.9z M578.4,93.2c0-3.9-0.2-6.9-0.6-9
	c-0.4-1.6-1-2.9-1.6-3.9c-0.6-1-1.6-1.8-2.9-2.5c-1.5-0.8-3-1.2-4.7-1.2c0-0.1-0.7-0.3-2.2-0.3v11.5c0,7.8,0.1,14.9,0.2,20.9
	c0,6.9,0.1,11.5,0.2,13.6v4.2v0.3C574.6,125.7,578.4,114.5,578.4,93.2z"/>
<path class="st0" d="M259.7,432.1c-2.5-1.3-3.7-3.8-3.7-7.2c0-5.5-1.1-14.9-3.3-28.2l-1.3-5.8l-33-4.1c-1.3,4.2-3.2,12.7-5.7,25.8
	c-1.3,9-3.5,15.1-6.4,17.9c-1.6,1.7-3.8,2.5-6.7,2.5c-2.7,0-5.2-0.8-7.3-2c-2.2-1.3-3.3-3.1-3.3-5l0.6-1.3l0.3-1.1
	c14.7-47.3,25.8-94,33.4-140.2c0-0.8,0.1-1.9,0.3-3.8c0.3-1.8,0.4-4.4,0.7-7.6c0.6-6.9,1.3-12.3,2.2-16.2c0.9-4.1,2.1-7.1,3.8-9.1
	h11.3c3.1,0,5.8,0.6,8,1.8c2.2,1.2,3.3,2.9,3.3,5c0,14,2.3,34.8,7,62.5c4.4,28.4,6.7,48.3,6.7,59.7c0,1.1,0.5,3.9,1.6,8.5
	c1.1,4.2,1.6,6.9,1.6,8.3s1.1,6.9,3.3,16.6c2,8.8,3,14.6,3,17.1v0.3c0,4.1-1.7,6.6-5.4,7.7C265.9,434,262.1,433.4,259.7,432.1z
	 M248,370.6c0-16.6-1.7-37.8-5.4-63.5l-3.3-28.8c-9.6,43.4-16.2,76-19.7,98.1c3.3,1.8,13.1,3.3,29.4,4.4
	C248.3,378.1,248,374.7,248,370.6z"/>
<path class="st0" d="M323.8,429.2l-0.3-10.8c-0.2-3.1-0.3-6.6-0.3-10.5l0.3-9.4c-0.6-2-2.3-22.2-5-60.5c-2.7-38.3-4.2-63-4.7-73.8
	c-12.9-0.3-21.1-1.4-24.7-3.3c-2.5-1.4-3.7-3.1-3.7-4.9c0-1.4,1.1-2.8,3.5-3.9c2.4-1.2,4.8-1.8,7.2-1.8c6.1,0,13.8,0.3,22.6,1.1
	c8.5,1,16.1,1.3,22.6,1.3h2.7h2.7c6.9,0,10.4,2.2,10.4,6.6c0,2.2-1.1,3.9-3.3,5.4c-2.2,1.3-4.8,2-7.7,2c-2,0-4.9-0.3-8.6-0.8
	l-6.7-1.1l-0.3,1.3l-0.3,1.3c0,16.4,1.8,42.6,5.7,78.5c3.6,33.7,5.4,59.9,5.4,78.5c0,2.2-1.1,4.1-3.5,5.8c-2.3,1.7-4.9,2.5-7.9,2.5
	L323.8,429.2z"/>
<path class="st0" d="M378.2,425.1c0-4.4,3.5-6.6,10.4-6.6h3.7l3.3,0.3c1.7,0,3-0.5,3.7-1.3c0.7-1,1-2.5,1-4.9c0-3.1-0.2-8-0.7-14.7
	c-0.6-4.4-1.5-12.4-2.3-23.7c-2-28.2-3-49.5-3-63.8c0-5.2,0.1-9.9,0.3-14.1l0.3-14.1c0-6.1-0.3-11.2-1-15.2c-3.6,0.8-6,1.1-7.7,1.1
	c-5.4,0-8-2.2-8-6.6c0-2.2,1.6-4.1,5-5.8c3.3-1.7,7.5-2.9,12.7-3.6c8.8-1.4,16.8-2.2,23.7-2.2c2.7,0,4.9,0.8,6.8,2.4
	c1.8,1.6,2.9,3.3,2.9,5.4c0,2.1-0.7,3.8-2.2,5.3c-1.5,1.4-3.3,2.2-5.5,2.2c-1.3,0-2.5-0.1-3.3-0.3h-2.7c-2.2,0-3.8,0.3-4.8,1.2
	c-1,0.8-1.6,2.4-1.6,4.6c0,17.8,1.3,44.8,4,80.7c0.4,6.6,1.3,16.4,2.7,29.3c1.1,8.5,1.6,17.1,1.6,26v10.5c1.3-0.3,3.6-0.3,6.7-0.3
	c9.3,0,14,3.3,14,9.6v1.7l-8.4,4.7c-0.2,0-1,0-2.2,0.1c-1.2,0.1-3.5,0.1-6.8,0.1c-7.1,0.3-11.7,0.6-13.7,0.6
	C387.9,433.4,378.2,430.6,378.2,425.1z"/>
<path class="st0" d="M700.9,432.3c-1.3-1.2-2.3-3.3-3-6.3l-2-5.3v-0.6v-0.8c0-6.1-7.6-26.9-22.8-62.3c-15.2-35.4-27.2-61.5-36-78.5
	v139.1l1.3,1.9c0.2,0.3,0.6,1,1.3,1.9c0.6,1,1,1.8,1,2.8c0,2.4-1,4.4-3,6.1c-2,1.7-4.4,2.5-7.3,2.5c-7.1,0-10.7-5.7-10.7-16.8
	l-0.3-47.3c-0.2-14.2-0.3-30-0.3-47.6c0-5.9,0.3-14.5,1-25.8c0.6-11.6,1-20.3,1-25.8c0-8.7,4-15.6,12-20.5v1.7
	c1.3-0.3,2.2-0.6,2.7-0.6c5.2,0,11.5,7.4,19.4,22.2c6.3,11.8,11.8,24.2,16.9,37.3s11.7,31.6,19.9,55.8l3.3,10
	c5.2,14.9,9.1,25.6,11.7,32.1c4.4-39.6,6.7-86.5,6.7-140.4v-3.6c-0.2-1.1-0.3-2.3-0.3-3.6c0-5.5,2.7-8.3,8-8.3c3.1,0,5.5,1,7.2,3
	c1.6,2,2.5,4.6,2.5,7.7V283c-0.4,28.4-1.7,59.1-4,92.3s-4.9,51.9-8,56.1c-6.5,1.4-10.5,2.2-12,2.2
	C704.2,434.1,702.2,433.5,700.9,432.3z"/>
<path class="st0" d="M149.9,430.3c-1.3-1.2-2.3-3.3-3-6.3l-2-5.3v-0.6v-0.8c0-6.1-7.6-26.9-22.8-62.3s-27.2-61.5-36-78.5v139.1
	l1.3,1.9c0.2,0.3,0.6,1,1.3,1.9c0.6,1,1,1.8,1,2.8c0,2.4-1,4.4-3,6.1c-2,1.7-4.4,2.5-7.3,2.5c-7.1,0-10.7-5.7-10.7-16.8l-0.3-47.3
	c-0.2-14.2-0.3-30-0.3-47.6c0-5.9,0.3-14.5,1-25.8c0.6-11.6,1-20.3,1-25.8c0-8.7,4-15.6,12-20.5v1.7c1.3-0.3,2.2-0.6,2.7-0.6
	c5.2,0,11.5,7.4,19.4,22.2c6.3,11.8,11.8,24.2,16.9,37.3c5,13.1,11.7,31.6,19.9,55.8l3.3,10c5.2,14.9,9.1,25.6,11.7,32.1
	c4.4-39.6,6.7-86.5,6.7-140.4v-3.6c-0.2-1.1-0.3-2.3-0.3-3.6c0-5.5,2.7-8.3,8-8.3c3.1,0,5.5,1,7.2,3c1.6,2,2.5,4.6,2.5,7.7v20.8
	c-0.4,28.4-1.7,59.1-4,92.3c-2.2,33.2-4.9,51.9-8,56.1c-6.5,1.4-10.5,2.2-12,2.2C153.3,431.9,151.2,431.3,149.9,430.3z"/>
<path class="st4" d="M357.6,159.4c-1.2,13.1-2.5,26.3-3.7,39.5c4.8,0,9.8,0,14.6,0c-0.4-4.9-1.3-11.2-3-17.9
	C363.1,171.4,360,164.1,357.6,159.4z"/>
<path class="st4" d="M308.2,159.4c1.3,13.1,2.7,26.3,4,39.5c-5.2,0-10.4,0-15.6,0c0.5-4.9,1.3-11.2,3.2-17.9
	C302.4,171.4,305.6,164.1,308.2,159.4z"/>
<path class="st2" d="M352.2,135.5c-0.4-16.8-4.3-29.4-7.6-40c-4-13.1-8.7-23.1-12.7-30.2c-4.5,7.8-9.8,19.2-13.7,34
	c-2.1,7.8-5.3,20.1-5.4,36.5c0,8.5,1.3,18.1,4.1,36.6c1.6,11.1,3.2,20.3,4.3,26.5c8-0.1,15.7,0.1,23.7,0c1-6.5,2.3-15.7,3.7-27.1
	C351.2,152.7,352.4,143.2,352.2,135.5z M332.3,141.2c-5.4,0-10-7.1-10-15.9s4.4-15.9,10-15.9c5.5,0,10,7.1,10,15.9
	C342.3,134,337.9,141.2,332.3,141.2z"/>
</svg>
